<svg xmlns="http://www.w3.org/2000/svg" viewBox="0 0 500 500"><path d="M456.6 209.1c-48.8-83.5-181-53.7-208-94.3-13.8-20.8-29.3-45-51.7-57.5A123 123 0 0 0 129 42.7c-77.3 5.7-110 74.7-95.2 150.6C53.7 294.5 143.4 397.9 250 398.6c55.7.4 109-19.6 150.7-47.7l1-.7c41.6-28.3 92-77.4 54.9-141" fill="#64eb5f"/><path d="M456.6 209.1c-48.8-83.5-181-53.7-208-94.3-13.8-20.8-29.3-45-51.7-57.5A123 123 0 0 0 129 42.7c-77.3 5.7-110 74.7-95.2 150.6C53.7 294.5 143.4 397.9 250 398.6c55.7.4 109-19.6 150.7-47.7l1-.7c41.6-28.3 92-77.4 54.9-141" fill="#fff" opacity=".7"/><path d="M78.2 215.2h-5.4a22 22 0 0 0-22 22v120.3a22 22 0 0 0 22 21.9H147a22 22 0 0 0 22-22h0m-6-255.8V78a13.4 13.4 0 0 1 13.4-13.5h96.7A13.4 13.4 0 0 1 286.5 78h0" fill="none" stroke="#263238" stroke-linecap="round" stroke-linejoin="round" stroke-width="1.1" stroke-dasharray="4.4"/><path d="M430.5 133.5v180a22 22 0 0 1-22.1 22.3H91.7a22 22 0 0 1-22.2-22.2V132a22 22 0 0 1 22.1-20.7h316.8a22 22 0 0 1 22 20.7z" fill="#fff" stroke="#263238" stroke-linecap="round" stroke-linejoin="round" stroke-width="1.1"/><path d="M80.3 140.3h340.6v166.3a21 21 0 0 1-20.8 20.8H101a21 21 0 0 1-20.8-20.8z" fill="#263238"/><path d="M420.9 140.3v166.3a20.7 20.7 0 0 1-20.6 20.8H100.8a20.7 20.7 0 0 1-20.5-20.8V140.3Z" fill="#fff" opacity=".2"/><path d="M430.5 132h-361a22 22 0 0 1 22.1-20.6h316.8a22 22 0 0 1 22 20.6Z" fill="#64eb5f" stroke="#263238" stroke-miterlimit="10" stroke-width="1.1"/><path d="M113.9 121.6a4 4 0 1 1-4-3.9 4 4 0 0 1 4 4m16.6-.1a4 4 0 1 1-4-3.9 4 4 0 0 1 4 4" fill="#263238"/><circle cx="143.2" cy="121.6" r="3.9" fill="#263238"/><path d="M420.9 140.3v166.3a21 21 0 0 1-20.8 20.8H101a21 21 0 0 1-20.4-16.7v-.1l-.4-4V140.3Z" fill="none" stroke="#263238" stroke-miterlimit="10" stroke-width="1.1"/><path d="M420.6 166a21 21 0 0 0-4.7-2l-1.8-8.3h-8l-1.8 8.4a20 20 0 0 0-4.7 1.9l-7.1-4.6-5.6 5.6 4.5 7.2a20 20 0 0 0-2 4.6l-8.3 1.9v7.9l8.3 1.9a20 20 0 0 0 2 4.6l-4.6 7.2 5.6 5.7 7.2-4.6a20 20 0 0 0 4.6 1.9l1.9 8.3h7.9l1.9-8.3a21 21 0 0 0 4.6-2l.4.3v-37.8ZM410 195a10.3 10.3 0 1 1 10.3-10.2A10.3 10.3 0 0 1 410 195m-132.5-21v-16.7l-17.7-3.9a46 46 0 0 0-4-9.8l2.2-3.3h-83.1l2 3.2a43 43 0 0 0-4 9.8l-17.6 4V174l17.6 4a44 44 0 0 0 4 9.8l-9.6 15.2 11.8 11.8 15.2-9.7a44 44 0 0 0 9.8 4l3.9 17.6h16.7l4-17.5a45 45 0 0 0 9.7-4.1l15.2 9.7 11.8-11.9-9.6-15.2a46 46 0 0 0 4-9.7Zm-61 13.3a21.6 21.6 0 1 1 21.6-21.6 21.6 21.6 0 0 1-21.7 21.6m-50 101.7.7-13.3-13.8-3.9a37 37 0 0 0-2.8-7.9l8.3-11.6-8.9-10-12.5 7a37 37 0 0 0-7.6-3.6l-2.3-14-13.3-.7-3.9 13.8a35 35 0 0 0-7.9 2.8l-11.6-8.3-10 9 7.1 12.4a35 35 0 0 0-3.6 7.6l-4 .6v18l3 .8a35 35 0 0 0 2.7 8l-5.7 8 .3 6.9 6 6.6 12.5-7a35 35 0 0 0 7.6 3.6l2.3 13.6.1.6 13.3.7.3-1.3 3.5-12.5a36 36 0 0 0 8-2.8l11.6 8.3 10-9-7-12.4a35 35 0 0 0 3.5-7.6ZM131 268.3a17.2 17.2 0 1 0-1.3 24.2 17 17 0 0 0 1.3-24.2m141.6.9a27 27 0 0 0 .8-6.3l9.6-5-2.7-9.7-10.8.5a27 27 0 0 0-3.8-5l3.2-10.3-8.7-5-7.3 8a29 29 0 0 0-6.3-.9l-5-9.5-9.7 2.6.5 10.8a27 27 0 0 0-5 3.9l-10.3-3.2-5 8.7 8 7.2a26 26 0 0 0-.8 6.3l-9.5 5 2.6 9.7 10.8-.5a25 25 0 0 0 3.9 5l-3.3 10.2 8.8 5 7.2-7.8a26 26 0 0 0 6.3.8l5 9.5 9.7-2.6-.5-9.2v-1.6a26 26 0 0 0 5-3.9l10.3 3.2 4.3-7.4.7-1.3Zm-22.9 5.9a13 13 0 1 1 9.1-16 13 13 0 0 1-9 16m133.5 11.1 2.2-13.3-13.4-5.4a35 35 0 0 0-2-8.3l9.7-10.8-7.8-11-13.4 5.7a35 35 0 0 0-7.2-4.5l-.8-14.5-13.3-2.2-5.4 13.4a37 37 0 0 0-8.3 2l-10.8-9.7-11 7.8 5.7 13.4a36 36 0 0 0-4 6.3l-.5.9-14.5.8-2.2 13.3 2.2.9 11.3 4.5a35 35 0 0 0 2 8.3l-9.8 10.8 7.9 11 13.3-5.7a35 35 0 0 0 7.2 4.6l.8 14.4 13.3 2.2 5.4-13.3a35 35 0 0 0 8.3-2l10.8 9.7 11-7.8-5.7-13.4a35 35 0 0 0 4.5-7.2Zm-37.3-.6a17.4 17.4 0 1 1 4-24.3 17.4 17.4 0 0 1-4 24.3" fill="#263238"/><rect x="85.4" y="187.8" width="130.8" height="171" rx="13.1" fill="#64eb5f" stroke="#263238" stroke-miterlimit="10" stroke-width="1.1"/><rect x="85.4" y="187.8" width="130.8" height="171" rx="13.1" opacity=".2"/><path d="M228.4 213.8v144.8a13 13 0 0 1-13.1 13.1H110.7a13 13 0 0 1-13.1-13.1V213.8a13 13 0 0 1 13-13.1h104.7a13 13 0 0 1 13 13.1" fill="#fff" stroke="#263238" stroke-linecap="round" stroke-linejoin="round" stroke-width="1.1"/><path d="M228.4 213.8v7.8H97.6v-7.8a13 13 0 0 1 13-13.1h104.7a13 13 0 0 1 13 13.1Z" fill="#64eb5f" stroke="#263238" stroke-miterlimit="10" stroke-width="1.1"/><path fill="#64eb5f" d="M109.9 230.5h32.2v5.4h-32.2zm0 48.4h32.2v5.4h-32.2zm0 43.9h32.2v5.4h-32.2z"/><path fill="#263238" d="M109.9 243.9h91.4v4h-91.4zm0 7.6h74.9v3.9h-74.9zm0 7.4h84.7v3.9h-84.7zm0 7.5h84.7v3.9h-84.7zm0 21.4h91.4v4h-91.4zm0 7.6h74.9v3.9h-74.9zm0 7.4h84.7v3.9h-84.7zm0 33.2h91.4v4h-91.4zm0 7.5h74.9v3.9h-74.9zm0 7.5h84.7v3.9h-84.7z"/><path d="M375.8 100.3v58.5a15.6 15.6 0 0 1-15.7 15.6H225.3a15.6 15.6 0 0 1-15.6-15.6v-58.5a15.7 15.7 0 0 1 15.6-15.6h134.8a15.6 15.6 0 0 1 15.7 15.6Z" fill="#fff" stroke="#222221" stroke-miterlimit="10" stroke-width="1.1"/><path d="M375.8 100.3v1.3h-166v-1.3a15.7 15.7 0 0 1 15.5-15.6h134.8a15.6 15.6 0 0 1 15.7 15.6Z" fill="#64eb5f" stroke="#263238" stroke-miterlimit="10" stroke-width="1.1"/><path d="M234.1 96a2.4 2.4 0 1 1 0-3.5 2.4 2.4 0 0 1 0 3.4m11.1.1a2.4 2.4 0 1 1 0-3.5 2.4 2.4 0 0 1 0 3.4m11.2.1a2.4 2.4 0 1 1 0-3.5 2.4 2.4 0 0 1 0 3.4" fill="#263238"/><path fill="none" stroke="#263238" stroke-linecap="round" stroke-linejoin="round" stroke-width="1.1" stroke-dasharray="4.4" d="M220.3 112.4h54.3v46.9h-54.3z"/><path fill="#263238" d="M283 112.4h62.5v3.3H283zm0 6.8h47.9v3.3H283zm0 6.8h71.3v3.3H283zm0 6.7h60.8v3.3H283z"/><rect x="343.2" y="245.5" width="43.6" height="31" rx="6.5" fill="#fff" stroke="#263238" stroke-linecap="round" stroke-linejoin="round" stroke-width="1.1"/><path fill="none" stroke="#263238" stroke-linecap="round" stroke-linejoin="round" stroke-width="1.1" d="m357.3 254.9-8.4 5.2 7.8 6.9m15.9.5 7.5-6.4-8.7-5.7m-10 16.1 6.2-19.4"/></svg>