<svg xmlns="http://www.w3.org/2000/svg" width="748.974" height="457.275" viewBox="0 0 749 457.3" xmlns:xlink="http://www.w3.org/1999/xlink"><g data-name="Group 201" transform="translate(-382 -195.5)"><g data-name="Group 200" transform="translate(382 195.5)"><path data-name="Path 3120" d="m384.2 369.8-261.8 67.4a34.6 34.6 0 0 1-42.1-24.9L1 104.8a34.6 34.6 0 0 1 24.9-42L269.6 0l62.3 28 77.2 299.7a34.6 34.6 0 0 1-24.9 42" fill="#f2f2f2"/><path data-name="Path 3121" d="M28.4 72.4a24.7 24.7 0 0 0-17.7 30L90 409.9a24.7 24.7 0 0 0 30 17.7L381.7 360a24.7 24.7 0 0 0 17.7-30l-76-295-54.7-24.6Z" fill="#121214"/><path data-name="Path 3122" d="m331.2 29.5-40.5 10.4a11.5 11.5 0 0 1-14-8.2l-7.7-30a.7.7 0 0 1 1-.8L331.3 28a.7.7 0 0 1 0 1.4" fill="#f2f2f2"/><path data-name="Path 3123" d="m310 292.1-119.3 30.7a5.8 5.8 0 0 1-2.9-11.2L307 281a5.8 5.8 0 1 1 3 11.2" fill="#ccc"/><path data-name="Path 3124" d="m337.8 305-142.2 36.6a5.8 5.8 0 1 1-3-11.1L335 293.8a5.8 5.8 0 0 1 2.9 11.2" fill="#ccc"/><circle data-name="Ellipse 44" cx="20.355" cy="20.355" r="20.355" transform="translate(121.7 319)" fill="#64eb5f"/><path data-name="Path 3125" d="M297.2 238.8 139 279.6a18 18 0 0 1-21.7-12.8L84 137.8a18 18 0 0 1 13-21.5l158.3-40.8A18 18 0 0 1 277 88.3l33.2 129a18 18 0 0 1-12.9 21.6" fill="#121214"/><path data-name="Path 3126" d="M297.2 238.8 139 279.6a18 18 0 0 1-21.7-12.8L84 137.8a18 18 0 0 1 13-21.5l158.3-40.8A18 18 0 0 1 277 88.3l33.2 129a18 18 0 0 1-12.9 21.6M97.4 118.2A15.7 15.7 0 0 0 86 137.4l33.2 128.8a15.7 15.7 0 0 0 19.1 11.3l158.3-40.7a15.7 15.7 0 0 0 11.3-19.1l-33.2-129a15.7 15.7 0 0 0-19.1-11.2Z" fill="#e6e6e6"/><path data-name="Path 411" d="m247.1 118.8-79.9 20.5a3 3 0 0 1-3.4-1.8 3 3 0 0 1 2-3.5l81.3-20.9c3.2 1.7 2.4 5 0 5.7" fill="#f2f2f2"/><path data-name="Path 412" d="m250.8 132.8-80 20.5a3 3 0 0 1-3.4-1.8 3 3 0 0 1 2-3.5l81.3-20.9c3.2 1.7 2.4 5 0 5.7" fill="#f2f2f2"/><path data-name="Path 413" d="m155.6 165.8-24.4 6.3a3 3 0 0 1-3.7-2.3l-7.4-28.7a3 3 0 0 1 2.2-3.8l24.4-6.3a3 3 0 0 1 3.8 2.2l7.4 28.8a3 3 0 0 1-2.3 3.8" fill="#64eb5f"/><path data-name="Path 414" d="M258 161.5 136 193a3 3 0 0 1-3.5-1.8 3 3 0 0 1 2-3.5L257.7 156c3.3 1.6 2.4 5 .1 5.6" fill="#f2f2f2"/><path data-name="Path 415" d="m261.5 175.6-122 31.4a3 3 0 0 1-3.4-1.8 3 3 0 0 1 2-3.5l123.3-31.8c3.3 1.7 2.4 5 .1 5.7" fill="#f2f2f2"/><path data-name="Path 416" d="m265.1 189.6-122 31.4a3 3 0 0 1-3.4-1.8 3 3 0 0 1 2-3.5L265 183.9c3.3 1.7 2.5 5 .1 5.7" fill="#f2f2f2"/><path data-name="Path 417" d="m268.7 203.6-122 31.4a3 3 0 0 1-3.4-1.8 3 3 0 0 1 2-3.5l123.3-31.8c3.3 1.7 2.5 5 .1 5.7" fill="#f2f2f2"/><path data-name="Path 418" d="m272.3 217.6-122 31.4a3 3 0 0 1-3.4-1.8 3 3 0 0 1 2-3.5l123.3-31.8c3.3 1.7 2.5 5.1.1 5.7" fill="#f2f2f2"/><path data-name="Path 395" d="M143.6 346.5a2 2 0 0 1-1.4 0l-5.6-2.4a2.1 2.1 0 1 1 1.7-4l3.6 1.6 4.7-11a2 2 0 0 1 2.8-1.2 2 2 0 0 1 1.1 2.8l-5.5 13a2 2 0 0 1-1.4 1.2" fill="#121214"/></g><g data-name="Group 199" transform="rotate(-8 1951.6 -4699.3)"><g data-name="Group 198" transform="rotate(19 63 376.2)"><path data-name="Path 3127" d="M305 386.7H34.6A34.6 34.6 0 0 1 0 352.1V34.6A34.6 34.6 0 0 1 34.6 0H286l53.4 42.6V352a34.6 34.6 0 0 1-34.5 34.6" fill="#e6e6e6"/><path data-name="Path 3128" d="M34.6 10A24.7 24.7 0 0 0 10 34.6V352a24.7 24.7 0 0 0 24.6 24.6H305a24.7 24.7 0 0 0 24.6-24.6V47.4l-47-37.4Z" fill="#121214"/><path data-name="Path 3129" d="M252.4 102.3H129.3a5.8 5.8 0 0 1 0-11.5h123a5.8 5.8 0 0 1 0 11.5" fill="#64eb5f"/><path data-name="Path 3130" d="M276.1 121.7H129.3a5.8 5.8 0 0 1 0-11.5H276a5.8 5.8 0 1 1 0 11.5" fill="#64eb5f"/><path data-name="Path 3131" d="M252.4 177.9H129.3a5.8 5.8 0 1 0 0 11.5h123a5.8 5.8 0 0 0 0-11.5" fill="#ccc"/><path data-name="Path 3132" d="M276.1 197.3H129.3a5.8 5.8 0 1 0 0 11.5H276a5.8 5.8 0 1 0 0-11.5" fill="#ccc"/><path data-name="Path 3133" d="M252.4 276.5H129.3a5.8 5.8 0 0 1 0-11.5h123a5.8 5.8 0 0 1 0 11.5" fill="#ccc"/><path data-name="Path 3134" d="M276.1 296H129.3a5.8 5.8 0 0 1 0-11.6H276a5.8 5.8 0 1 1 0 11.5" fill="#ccc"/><circle data-name="Ellipse 44" cx="20.355" cy="20.355" r="20.355" transform="translate(57.7 85.9)" fill="#64eb5f"/><path data-name="Path 395" d="M76 114a2 2 0 0 1-1.3-.4l-4.8-3.7a2.1 2.1 0 0 1 2.6-3.4l3.1 2.4 7.3-9.5a2 2 0 0 1 3-.4 2 2 0 0 1 .4 3l-8.6 11.2a2 2 0 0 1-1.7.8" fill="#121214"/><path data-name="Path 3135" d="M100.5 193.3A20.4 20.4 0 0 1 80 213.7h-.5a20.4 20.4 0 1 1 20.9-20.4" fill="#64eb5f"/><circle data-name="Ellipse 44" cx="20.355" cy="20.355" r="20.355" transform="translate(57.7 260.1)" fill="#64eb5f"/><path data-name="Path 3136" d="M338.5 44h-41.8A11.5 11.5 0 0 1 285 32.3V1.5a.7.7 0 0 1 1.2-.5l52.6 41.7a.7.7 0 0 1-.4 1.2" fill="#ccc"/></g></g><path data-name="Path 3140" d="M878.1 619.4a9 9 0 0 1-12.6 3l-106.8-65.1a9.2 9.2 0 0 1 9.5-15.7L875 606.8a9 9 0 0 1 3.1 12.6" fill="#3f3d56"/><path data-name="Path 3141" d="M771.2 554.2a73.3 73.3 0 1 1-24.4-100.7 73.3 73.3 0 0 1 24.4 100.7m-109.4-66.7a55 55 0 1 0 75.5-18.3 55 55 0 0 0-75.5 18.3" fill="#3f3d56"/><circle data-name="Ellipse 44" cx="57.007" cy="57.007" r="57.007" transform="rotate(19 -987 2231)" fill="#64eb5f"/></g></svg>