<svg xmlns="http://www.w3.org/2000/svg" xmlns:xlink="http://www.w3.org/1999/xlink" viewBox="0 0 1072 1072"><defs><radialGradient id="b" cx="50%" cy="50%" r="50%"><stop offset="0%" stop-color="#09fe5b" stop-opacity=".1"/><stop offset="50%" stop-color="#09fe5b" stop-opacity="0"/><stop offset="100%" stop-color="#09fe5b" stop-opacity="0"/></radialGradient><radialGradient id="a" cx="50%" cy="50%" r="50%"><stop offset="0%" stop-color="#fff" stop-opacity=".7"/><stop offset="60%" stop-color="#fff" stop-opacity=".3"/><stop offset="100%" stop-color="#fff" stop-opacity="0"/></radialGradient><pattern id="c" width="60" height="60" patternUnits="userSpaceOnUse"><path fill="none" stroke="#09fe5b" stroke-opacity=".1" stroke-width="1.5" d="M60 0H0v60"/></pattern><filter id="e" width="160%" height="160%" x="-30%" y="-30%"><feGaussianBlur in="SourceGraphic" result="blur1" stdDeviation="4"/><feGaussianBlur in="SourceGraphic" result="blur2" stdDeviation="12"/><feGaussianBlur in="SourceGraphic" result="blur3" stdDeviation="24"/><feMerge><feMergeNode in="blur3"/><feMergeNode in="blur2"/><feMergeNode in="blur1"/><feMergeNode in="SourceGraphic"/></feMerge></filter><mask id="d"><path fill="url(#a)" d="M0 0h1072v1072H0z"/></mask></defs><path fill="url(#b)" d="M0 0h1072v1072H0z"/><path fill="url(#c)" d="M0 0h1072v1072H0z" mask="url(#d)"/><g fill="none"><path stroke="#09fe5b" stroke-dasharray="12 8" stroke-opacity=".3" stroke-width="2" d="M167 24h739a156 156 0 0 1 56 6q50 19 74 66a126 126 0 0 1 12 59v581l1 171c0 36-6 69-31 96l-2 2c-21 24-51 40-82 43H618l-453 1c-41 0-75-10-105-39-29-29-37-65-37-105V166q-1-34 11-65l1-2a129 129 0 0 1 77-69l2-1 10-3q21-3 43-2Z"/><path stroke="#09fe5b" stroke-opacity=".5" stroke-width="2" d="M192 227h688l4-1q25 2 43 19 17 17 18 41v498q0 13-6 25l-1 2q-12 24-37 32-18 4-35 3l-121-1H638l6 11 1 3 12 20q12 16 9 36-4 17-19 25-14 5-29 4H449c-13 0-23-1-33-11q-12-12-11-30 3-15 12-28l2-4 11-18 1-3 3-5H201c-22 1-39-2-56-18a62 62 0 0 1-18-45V405l-1-110q-1-29 19-50 19-19 47-18Zm-27 38q-7 9-10 20l-1 2v488q0 19 13 34 15 14 36 13h261l393 1c20 0 33-1 48-15q13-14 13-32V307c0-17-1-31-13-44q-18-15-42-14H203q-23 0-38 16Z"/><path stroke="#09fe5b" stroke-linecap="round" stroke-linejoin="round" stroke-width="7" d="M0 0h740a156 156 0 0 1 56 7q49 18 73 65a126 126 0 0 1 12 60v23l1 278v450c0 36-6 69-31 96l-2 3c-20 24-50 39-82 42l-29 1H-2c-41 0-75-9-105-38-29-30-36-66-36-106V142q-2-33 10-65l1-2A129 129 0 0 1-55 6l2-1 10-2q22-4 43-3m5 205-2 1q-26 10-38 33-5 12-5 23v488a78 78 0 0 0 8 39q14 25 40 31l10 2h9l10-1h230l-5 11-2 3-11 20c-8 12-14 23-10 39q6 15 19 22 8 4 16 4h180c14 0 25-1 36-11q10-11 11-25-3-17-11-30l-13-23-2-3-4-7h4l228 1c22 0 41-3 58-19q9-9 13-21l1-2 1-2 1-2 1-17v-55l1-142V271q2-28-18-49a64 64 0 0 0-47-19H22z" filter="url(#e)" transform="translate(167 24)"/><path stroke="#fff" stroke-linecap="round" stroke-linejoin="round" stroke-width="2" d="M167 24h739a156 156 0 0 1 56 6q50 19 74 66a126 126 0 0 1 12 59v581l1 171c0 36-6 69-31 96l-2 2c-21 24-51 40-82 43H618l-453 1c-41 0-75-10-105-39-29-29-37-65-37-105V166q-1-34 11-65l1-2a129 129 0 0 1 77-69l2-1 10-3q21-3 43-2m5 205-3 1q-25 9-37 33-6 11-5 23v487a78 78 0 0 0 8 40q13 24 40 31l12 1h247l-6 11-1 3-11 19c-8 13-14 24-10 39q5 15 19 23 7 4 16 4h180c14 0 25-1 36-12q10-10 10-25-1-16-11-30l-13-22-1-3-4-7h4l227 1c23 0 42-3 59-20q8-9 13-20l1-2 1-2v-2q3-9 2-18V405l1-110q1-29-19-50a64 64 0 0 0-47-18l-3-1h-21l-144 1H189z"/><path stroke="#09fe5b" stroke-opacity=".8" stroke-width="3" d="M0 0h208q1 40-26 70l-1 2q-17 18-40 27l-3 2q-38 13-74-3Q23 79 7 38l-1-2-1-3Q0 17 0 0Z" filter="url(#e)" transform="translate(432 585)"/><path stroke="#fff" stroke-width="1.2" d="M432 585h208q1 40-26 70l-1 2q-17 18-40 27l-3 2q-38 13-74-3-41-19-57-60l-1-2-1-3q-5-16-5-33Z"/><path stroke="#09fe5b" stroke-opacity=".8" stroke-width="3" d="m0 0 7 7 1 2q11 13 9 31v85q0 20-14 35-16 13-36 11-19-2-32-18c-9-13-9-28-9-44V48c0-17 2-31 14-45q29-22 60-3Z" filter="url(#e)" transform="translate(762 414)"/><path stroke="#fff" stroke-width="1.2" d="m762 414 7 7 1 2q11 13 9 31v85q0 20-14 35-16 13-36 11-19-2-32-18c-9-13-9-28-9-44v-61c0-17 2-31 14-45q29-22 60-3Z"/><path stroke="#09fe5b" stroke-opacity=".8" stroke-width="3" d="M0 0q14 10 18 27v27l1 71v3q-1 18-14 32-16 14-36 12-13-1-23-9l-2-2q-12-9-15-25V47c-1-16 0-28 11-41 16-16 41-20 60-6Z" filter="url(#e)" transform="translate(366 413)"/><path stroke="#fff" stroke-width="1.2" d="M366 413q14 11 18 27v98l1 3q-2 18-14 32-16 14-36 12-13-1-23-9l-2-1q-12-11-15-26v-14l-1-75c0-16 1-28 12-41 16-16 41-20 60-6Z"/></g></svg>