<svg xmlns="http://www.w3.org/2000/svg" width="1044" height="1044"><path fill="#191B1F" d="M152.697 9.615c4.08.007 8.158-.003 12.237-.01q10.707-.014 21.413-.003c10.614.011 21.228.006 31.841-.004q28.44-.02 56.88-.005 24.888.011 49.777.006l3.338-.001 13.412-.003c41.928-.01 83.856 0 125.783.015q55.852.021 111.703-.001a207372 207372 0 0 1 138.94-.01h3.33q24.87.005 49.74-.008 28.284-.013 56.569.01 15.822.015 31.643-.002 10.578-.01 21.156.01 6.02.013 12.04 0c18.297-.047 36.077-.08 53.564 6.078l2.228.766c32.297 11.511 58.19 34.608 73.57 65.147 8.493 17.9 12.297 36.04 12.273 55.776l.007 4.087q.009 5.619.006 11.238.002 6.112.011 12.224.014 12.125.016 24.248.005 14.523.02 29.045.03 35.102.04 70.203l.015 33.218a412383 412383 0 0 1 .047 145.977q.013 57.693.064 115.388a159985 159985 0 0 1 .058 135.42v3.334q.006 26.528.04 53.054.03 26.676.016 53.351-.01 15.838.022 31.675.02 10.594 0 21.19c-.007 4.017-.008 8.034.01 12.052.142 35.48-5.939 68.691-30.506 95.92l-2.105 2.5c-20.436 23.822-50.651 39.433-81.895 42.5-9.919.526-19.865.416-29.795.392-4.075-.007-8.151.004-12.227.012q-10.695.018-21.39.007c-10.603-.009-21.206 0-31.81.01-18.942.02-37.883.023-56.825.018a79636 79636 0 0 0-66.478.007c-31.177.01-62.354.016-93.53.008l-3.56-.001-28.616-.008q-55.802-.014-111.603.022a158080 158080 0 0 1-142.175.029q-24.844-.003-49.69.019-28.263.023-56.527-.002-15.803-.017-31.607.009-10.574.014-21.147-.01c-4.009-.008-8.017-.01-12.026.005-40.941.146-75.412-9.14-105.244-38.33C16.733 966.815 9.342 930.6 9.486 890.717c.01-4.077-.003-8.154-.013-12.23q-.02-10.687-.004-21.376c.016-10.596.008-21.192-.004-31.788-.022-18.93-.02-37.859-.008-56.789q.015-24.849.008-49.698l-.001-3.334-.004-13.403c-.012-41.876-.001-83.752.02-125.629q.029-55.763-.001-111.524a155152 155152 0 0 1-.014-138.782v-3.327q.006-24.83-.01-49.657-.019-28.242.013-56.484.019-15.79-.003-31.58a5649 5649 0 0 1 .014-21.13c.01-4.005.013-8.01-.001-12.015C9.402 129.277 10.645 107.991 20 87l.89-2.01c13.894-30.752 38.981-54.367 70.315-66.87A239 239 0 0 1 98 15.687l2.007-.697c2.314-.75 4.64-1.372 6.993-1.99l2.855-.772c14.091-3.214 28.475-2.652 42.842-2.613"/><path fill="#17D7A0" d="M152.697 9.615c4.08.007 8.158-.003 12.237-.01q10.707-.014 21.413-.003c10.614.011 21.228.006 31.841-.004q28.44-.02 56.88-.005 24.888.011 49.777.006l3.338-.001 13.412-.003c41.928-.01 83.856 0 125.783.015q55.852.021 111.703-.001a207372 207372 0 0 1 138.94-.01h3.33q24.87.005 49.74-.008 28.284-.013 56.569.01 15.822.015 31.643-.002 10.578-.01 21.156.01 6.02.013 12.04 0c18.297-.047 36.077-.08 53.564 6.078l2.228.766c32.297 11.511 58.19 34.608 73.57 65.147 8.493 17.9 12.297 36.04 12.273 55.776l.007 4.087q.009 5.619.006 11.238.002 6.112.011 12.224.014 12.125.016 24.248.005 14.523.02 29.045.03 35.102.04 70.203l.015 33.218a412383 412383 0 0 1 .047 145.977q.013 57.693.064 115.388a159985 159985 0 0 1 .058 135.42v3.334q.006 26.528.04 53.054.03 26.676.016 53.351-.01 15.838.022 31.675.02 10.594 0 21.19c-.007 4.017-.008 8.034.01 12.052.142 35.48-5.939 68.691-30.506 95.92l-2.105 2.5c-20.436 23.822-50.651 39.433-81.895 42.5-9.919.526-19.865.416-29.795.392-4.075-.007-8.151.004-12.227.012q-10.695.018-21.39.007c-10.603-.009-21.206 0-31.81.01-18.942.02-37.883.023-56.825.018a79636 79636 0 0 0-66.478.007c-31.177.01-62.354.016-93.53.008l-3.56-.001-28.616-.008q-55.802-.014-111.603.022a158080 158080 0 0 1-142.175.029q-24.844-.003-49.69.019-28.263.023-56.527-.002-15.803-.017-31.607.009-10.574.014-21.147-.01c-4.009-.008-8.017-.01-12.026.005-40.941.146-75.412-9.14-105.244-38.33C16.733 966.815 9.342 930.6 9.486 890.717c.01-4.077-.003-8.154-.013-12.23q-.02-10.687-.004-21.376c.016-10.596.008-21.192-.004-31.788-.022-18.93-.02-37.859-.008-56.789q.015-24.849.008-49.698l-.001-3.334-.004-13.403c-.012-41.876-.001-83.752.02-125.629q.029-55.763-.001-111.524a155152 155152 0 0 1-.014-138.782v-3.327q.006-24.83-.01-49.657-.019-28.242.013-56.484.019-15.79-.003-31.58a5649 5649 0 0 1 .014-21.13c.01-4.005.013-8.01-.001-12.015C9.402 129.277 10.645 107.991 20 87l.89-2.01c13.894-30.752 38.981-54.367 70.315-66.87A239 239 0 0 1 98 15.687l2.007-.697c2.314-.75 4.64-1.372 6.993-1.99l2.855-.772c14.091-3.214 28.475-2.652 42.842-2.613m-14.236 134.604c-16.85 19.042-25.637 40.685-25.592 65.967l-.007 3.333q-.006 5.532-.002 11.063l-.01 8.01q-.01 9.855-.01 19.708-.002 11.807-.014 23.613c-.016 19.02-.022 38.042-.027 57.062q-.004 13.5-.01 27.001a303606 303606 0 0 0-.03 118.656c-.003 31.264-.02 62.528-.042 93.793a140117 140117 0 0 0-.04 112.797q-.004 21.565-.027 43.13-.022 21.68-.01 43.36.007 12.872-.015 25.745-.015 8.608.001 17.218.01 4.897-.006 9.796c-.052 16.369-.042 31.788 7.193 46.841l1.07 2.303c11.033 23.369 30.068 43.586 54.691 52.71 3.128.959 6.267 1.826 9.426 2.675l2.813 1.04c7.563 2.28 15.479 2.105 23.316 2.089l3.314.005c3.667.005 7.334.002 11 0l7.965.007q8.66.007 17.32.005 12.877 0 25.755.008 24.339.013 48.678.013a173011 173011 0 0 1 48.414.008l2.718.001a289323 289323 0 0 0 93.015.01h8.708q45.176-.001 90.351.02a210862 210862 0 0 0 112.345.023h2.692q21.442 0 42.885.015 21.552.013 43.104.003 12.8-.006 25.6.007 8.558.009 17.114-.002 4.87-.007 9.742.003c22.086.2 22.086.2 43.464-4.818l2.147-.782c25.182-9.58 45.178-28.241 56.54-52.655 1.24-2.865 2.37-5.754 3.438-8.688l.712-1.938c4.953-14.646 4.133-30.02 4.104-45.26q.003-3.982.01-7.963.01-8.64.001-17.278c-.007-8.565-.003-17.129.003-25.694q.014-22.947.004-45.895-.008-20.082-.004-40.164v-2.693l.002-10.822c.006-33.83 0-67.658-.01-101.487q-.014-45.066 0-90.132a202516 202516 0 0 0 .008-112.106v-2.686q-.004-20.068.005-40.136.009-22.821-.007-45.643-.01-12.768.001-25.534.007-8.535-.007-17.068-.007-4.86.001-9.716c.06-33.88-7.125-59.221-31.015-84.011-18.411-17.725-43.176-26.27-68.386-26.212l-3.318-.004c-3.67-.004-7.342 0-11.012.003l-7.974-.005q-8.668-.005-17.337 0-12.892.004-25.783-.002-23.024-.007-46.047-.002-20.149.004-40.298.002h-2.7l-10.848-.001q-50.89-.003-101.78.005-45.216.007-90.432 0a407403 407403 0 0 0-112.422-.004h-2.694q-20.136.002-40.272-.002-22.896-.005-45.79.003-12.816.004-25.63 0-8.558-.005-17.117.003-4.878.003-9.754 0c-3.504-.004-7.008 0-10.512.004l-3.052-.007c-26.909.072-51.124 12.035-69.627 31.352"/><path fill="#09090B" d="m211.129 112.871 3.314-.005c3.667-.005 7.334-.002 11 0l7.965-.007q8.66-.007 17.32-.005 12.877 0 25.755-.008 24.339-.013 48.678-.013a173010 173010 0 0 0 51.132-.01 289324 289324 0 0 1 93.015-.008h8.708q45.176 0 90.351-.02a210862 210862 0 0 1 112.345-.024h2.692q21.443 0 42.885-.015 21.552-.013 43.104-.003 12.8.006 25.6-.007 8.558-.009 17.114.002 4.87.007 9.742-.003c30.186-.061 30.186-.061 43.464 4.817l2.147.783c25.414 9.668 44.806 28.267 56.54 52.655 6.023 13.666 8.158 26.27 8.131 41.102l.007 3.306q.006 5.486.002 10.97l.01 7.944q.01 9.772.01 19.546.002 11.708.014 23.417c.016 18.864.022 37.728.027 56.593q.003 13.39.01 26.781a298731 298731 0 0 1 .03 114.805v2.899c.003 31.007.02 62.015.042 93.023a137818 137818 0 0 1 .04 109.199v2.687q.004 21.385.027 42.771.022 21.506.01 43.01-.007 12.765.015 25.531.014 8.542-.001 17.083-.01 4.857.006 9.714c.11 34.344-7.798 60.182-31.845 85.181-18.161 17.406-42.924 25.621-67.675 25.564l-3.318.004c-3.67.004-7.342 0-11.012-.003l-7.974.005q-8.669.005-17.337 0-12.892-.004-25.783.002-23.024.007-46.047.002-20.149-.004-40.298-.002h-2.7l-10.848.001q-50.89.004-101.78-.005-45.216-.007-90.432 0a407403 407403 0 0 1-115.116.004q-20.136-.002-40.272.002-22.896.005-45.79-.003-12.816-.005-25.63 0-8.559.005-17.117-.003-4.878-.003-9.754 0c-3.504.004-7.008 0-10.512-.004l-3.052.007c-25.6-.068-48.645-10.859-66.963-28.57-17.722-18.553-28.501-42.214-28.374-68.011l-.008-3.346c-.006-3.69.002-7.38.01-11.069q-.002-4.014-.008-8.028-.007-8.719.003-17.438c.01-8.644.008-17.288.004-25.932q-.008-21.818.006-43.634.013-21.606.013-43.212v-13.631q.001-51.187.025-102.375a192879 192879 0 0 0 .018-114.252v-2.896a293133 293133 0 0 1 .014-89.609q.005-18.912.005-37.823 0-24.369.014-48.738.009-12.888.006-25.776 0-8.608.009-17.215.005-4.905.002-9.81-.002-5.286.007-10.571l-.006-3.07c.08-27.63 13.132-49.76 32.143-69.178 18.25-17.314 41.344-25.128 66.12-25.078M162 166c-19.972 22.045-22.307 45.546-22.267 73.873l-.014 7.632q-.014 8.278-.011 16.557c.003 8.207-.006 16.414-.016 24.621-.02 15.513-.025 31.026-.026 46.54a79182 79182 0 0 1-.017 46.302l-.001 2.601q-.02 36.201-.02 72.401v2.756l.002 22.152q0 43.192-.042 86.386a96439 96439 0 0 0-.045 107.476v2.577c0 13.665-.013 27.33-.03 40.996q-.026 20.61-.006 41.22.012 12.233-.016 24.466c-.013 6.1-.006 12.2.01 18.3q.005 3.69-.012 7.379c-.115 27.133 4.843 49.94 24.054 70.394 23.156 22.346 50.592 24.687 81.248 24.625q3.749.003 7.496.01 8.115.009 16.23.001c8.046-.007 16.091-.003 24.136.003q21.56.014 43.119.004 18.866-.008 37.732-.004h2.532l10.175.002q47.688.007 95.377-.01 42.338-.014 84.675 0a178874 178874 0 0 0 105.367.008h2.525q18.852-.004 37.705.005 21.441.009 42.882-.007 11.99-.01 23.98.001 8.964.006 17.928-.01 3.618-.002 7.235.004c29.22.055 55.058-3.297 77.115-24.261 22.525-23.699 24.317-50.888 24.254-81.95q.003-3.736.01-7.473.009-8.082.001-16.165c-.007-8.012-.003-16.025.003-24.038q.014-21.472.004-42.945a63392 63392 0 0 1-.002-50.24q.007-47.504-.01-95.007-.014-42.168 0-84.334a177503 177503 0 0 0 .008-104.965v-2.516q-.003-18.777.005-37.552.008-21.356-.007-42.71-.01-11.94.001-23.88.006-8.928-.01-17.858-.002-3.601.004-7.202c.054-28.968-2.79-55.935-23.76-77.692-18.053-17.718-40.13-24.656-65.075-24.602l-3.132-.005c-3.463-.005-6.926-.002-10.389 0l-7.525-.007q-8.18-.006-16.36-.005-12.163 0-24.327-.008-22.993-.013-45.985-.013a154486 154486 0 0 1-48.313-.01 258401 258401 0 0 0-87.904-.008h-8.229q-42.678 0-85.356-.02a188193 188193 0 0 0-106.16-.024h-2.545q-20.253 0-40.506-.015-20.367-.013-40.732-.003-12.09.006-24.179-.007c-6.027-.007-12.055-.003-18.082.004q-3.648.003-7.294-.005c-30.24-.065-55.434 3.63-77.408 26.255"/><path fill="#FDFDFD" d="M354.688 434.375C367.455 444.827 377.228 459.207 379 476c1.37 16.948-2.698 33.209-13.137 46.777-11.072 12.85-25.75 21.754-42.883 23.42-18.941 1.354-34.002-4.369-48.57-16.322-12.222-11.366-19.321-26.83-19.949-43.416-.162-17.517 5.073-32.361 17.266-45.182L274 439l1.898-1.934c21.622-20.48 55.57-20.164 78.79-2.691"/><path fill="#FEFEFE" d="m725.125 421.5 3.034.015c18.013.419 32.227 7.743 44.841 20.485 12.642 13.594 15.609 29.19 15.313 47.082-.26 6.893-1.432 12.595-4.313 18.918l-1.215 2.797C774.71 527.37 760.048 537.98 743 544c-12.721 3.007-29.229 2.778-41-3l-2.805-1.285C684.897 532.605 673.331 520.089 668 505c-2.484-7.56-3.522-14.488-3.437-22.437l.022-3.054c.165-7.45 1.11-13.755 4.415-20.509l1.215-2.734c7.213-14.803 20.587-26.38 35.972-32.076 6.39-2.074 12.236-2.734 18.938-2.69"/><path fill="#FCFCFC" d="m337.156 626.055 3.55 1.349 1.87.726c3.33 1.29 6.676 2.535 10.022 3.78l2.096.782c19.692 7.3 39.86 13.522 60.306 18.308l2.76.65c12.716 2.943 25.525 5.118 38.428 7.038l2.07.31c4.906.732 9.819 1.393 14.742 2.002l2.31.289c15.984 1.933 31.918 2.07 48.003 2.024l4.026-.007c19.725-.043 39.117-.465 58.661-3.306l2.202-.316c26.597-3.826 52.414-9.07 78.15-16.88q3.415-1.035 6.84-2.046c6.082-1.84 12.045-3.828 17.992-6.067l3.342-1.246q3.269-1.226 6.52-2.5c6.272-2.354 12.215-4.156 18.954-2.945 3.11 1.71 5.389 3.777 7 7 .273 1.953.273 1.953.375 4.25l.148 2.266c-.796 3.78-2.582 6.11-5.523 8.484-3.63 1.86-7.397 3.179-11.25 4.5l-3.27 1.167a967 967 0 0 1-6.51 2.293 357 357 0 0 0-7.45 2.704c-24.718 9.197-50.836 15.247-76.771 19.848q-2.764.49-5.525 1c-51.327 9.398-104.245 8.681-155.849 2.113l-2.385-.3c-10.802-1.377-21.35-3.348-31.948-5.846-2.993-.702-5.995-1.37-8.995-2.042L405.75 674c-1.042-.235-2.083-.47-3.156-.71-13.948-3.196-27.532-7.453-41.094-11.977l-2.374-.792c-9.788-3.278-19.536-6.632-29.126-10.458l-2.654-1.032c-4.637-1.917-7.69-3.563-10.346-8.031-1.549-4.638-1.467-8.049.688-12.437 5.607-6.215 11.992-5.411 19.468-2.508"/><path fill="#FBFBFB" d="M313.875 378.875c2.512 2.512 3.047 3.419 3.438 6.938-.396 4.031-1.496 5.314-4.313 8.187-2.996 1.223-2.996 1.223-6.437 2.063l-3.762.972L299 398c-25.06 7.22-44.998 19.128-58.13 42.407-5.712 10.596-9.243 21.524-11.132 33.386-1.114 4.842-2.597 7.446-6.738 10.207-3.375.5-3.375.5-7 0-3.922-3.338-3.922-3.338-5-6-.345-5.574.289-10.575 1.625-16l.54-2.216C217.647 442.137 225.11 426.905 237 413l1.344-1.781C250.468 395.546 270.45 386.31 289 381l1.995-.59c17.381-5.121 17.381-5.121 22.88-1.535M742.918 377.594C766.996 382.46 787.733 392.516 805 410l2.082 2.086c14.318 15.32 26.646 42.719 26.324 63.976C833 478 833 478 830.438 481c-3.963 2.305-5.934 2.75-10.438 2-4.07-3.074-4.952-6.523-5.937-11.312q-.5-2.166-1.012-4.329l-.521-2.209c-3.887-15.775-10.644-30.017-21.53-42.15l-1.566-1.848c-14.125-15.54-36.809-22.54-56.754-26.246-3.172-1.072-4.102-1.988-5.68-4.906-.629-4.951-.779-6.867 2.063-11 4.55-3.098 8.552-2.21 13.855-1.406"/></svg>