<?xml version="1.0" encoding="UTF-8"?>
<svg version="1.1" xmlns="http://www.w3.org/2000/svg" width="1034" height="1034">
<path d="M0 0 C4.07900372 0.00766351 8.15797344 -0.00219064 12.23697224 -0.00973 C19.37444207 -0.0205304 26.51184373 -0.02025778 33.64931664 -0.01258852 C44.26325087 -0.00121492 54.87712789 -0.00705586 65.49106177 -0.01621344 C84.45065519 -0.03199322 103.41021824 -0.0306484 122.36981453 -0.0219767 C138.96246508 -0.01442502 155.55510451 -0.01246227 172.14775642 -0.01604463 C173.24910785 -0.01627379 174.35045928 -0.01650294 175.485185 -0.01673904 C179.95612988 -0.01767309 184.42707477 -0.01862829 188.89801964 -0.01961833 C230.82560915 -0.02879209 272.75317934 -0.02048021 314.68076587 -0.00432764 C351.9151592 0.00990781 389.14952174 0.00863574 426.3839148 -0.00571062 C468.23413855 -0.02178162 510.08434524 -0.02814045 551.93457165 -0.01887383 C556.39760101 -0.0179117 560.86063038 -0.01697318 565.32365975 -0.01604463 C566.97198085 -0.01568879 566.97198085 -0.01568879 568.65360137 -0.01532575 C585.23343849 -0.01191617 601.81326327 -0.01589889 618.39309868 -0.02348329 C637.24962137 -0.03206624 656.10610899 -0.02990556 674.96262731 -0.01364106 C685.51041746 -0.00484279 696.05813164 -0.00424186 706.60591979 -0.01557958 C713.65791758 -0.02232246 720.70985466 -0.0180917 727.76184348 -0.00506528 C731.77543645 0.00204776 735.78887884 0.00456007 739.80246689 -0.00628323 C758.098354 -0.05211946 775.87900395 -0.08484688 793.36511597 6.07290266 C794.10060669 6.32563948 794.83609741 6.5783763 795.59387573 6.8387718 C827.89100713 18.34949019 853.78403556 41.44665895 869.16394409 71.98550032 C877.65655238 89.88480124 881.46022585 108.02472334 881.43683704 127.76096342 C881.43879229 129.12346172 881.44118202 130.48595945 881.44396502 131.84845631 C881.45034654 135.5943276 881.45052812 139.34017738 881.44968761 143.08605307 C881.44985747 147.16084181 881.45576772 151.23562294 881.46092847 155.31040786 C881.47024635 163.39321349 881.47417515 171.47601365 881.47644743 179.55882399 C881.47941163 189.24038469 881.48811035 198.92193815 881.49686171 208.60349505 C881.51769857 232.00462608 881.52817485 255.40575838 881.53699132 278.80689653 C881.54119905 289.87949966 881.54642088 300.95210226 881.55167585 312.02470494 C881.56956569 349.93443491 881.58456115 387.84416504 881.59199604 425.7538986 C881.5924708 428.13356927 881.59294669 430.51323993 881.5934237 432.8929106 C881.59377827 434.66304737 881.59377827 434.66304737 881.59413999 436.46894449 C881.59534118 442.44777039 881.59655663 448.4265963 881.59778198 454.40542219 C881.59802213 455.59193355 881.59826228 456.7784449 881.59850971 458.00091115 C881.60640125 496.46360805 881.62983028 534.92627411 881.66233793 573.38895754 C881.69665135 614.06254953 881.71634859 654.73612348 881.71964028 695.40973018 C881.72005781 699.87658897 881.72053737 704.34344775 881.72106346 708.81030653 C881.72118665 709.910157 881.72130985 711.01000747 881.72143677 712.14318674 C881.72376692 729.8279589 881.7394166 747.51269517 881.75990531 765.19745455 C881.78018152 782.981249 881.78563211 800.76500043 881.77613467 818.5488043 C881.7709267 829.1070603 881.77676395 839.6651729 881.79866935 850.22340821 C881.81221267 857.28648503 881.81106933 864.34946352 881.79826739 871.4125414 C881.79139422 875.43018496 881.79061982 879.44755506 881.80782748 883.46517379 C881.95017555 918.94513144 875.86963297 952.15659519 851.30261597 979.38540266 C850.60781128 980.21040266 849.91300659 981.03540266 849.19714722 981.88540266 C828.76202125 1005.70777173 798.54656197 1021.31864536 767.30261597 1024.38540266 C757.3839233 1024.91149441 747.43764836 1024.80163014 737.50777119 1024.77700669 C733.43212716 1024.77024551 729.35652064 1024.78098855 725.28088483 1024.78940253 C718.15075123 1024.80173182 711.02068347 1024.80299809 703.89054283 1024.7968521 C693.28731381 1024.78773697 682.68414537 1024.79581237 672.08092098 1024.80714334 C653.13909238 1024.82678657 634.19729118 1024.82916213 615.25545482 1024.82394813 C598.67641694 1024.81938693 582.09738989 1024.81999517 565.51835236 1024.82578848 C563.29249741 1024.82654536 561.06664246 1024.82730134 558.84078751 1024.82805643 C555.48641345 1024.82920165 552.13203939 1024.83035153 548.77766534 1024.83151567 C517.60069263 1024.84221724 486.42372353 1024.84694947 455.24674973 1024.83904551 C454.07206196 1024.83874833 452.89737419 1024.83845116 451.68708982 1024.83814498 C442.14845831 1024.83569617 432.60982683 1024.83308452 423.07119536 1024.83046085 C385.87016087 1024.82035979 348.66917151 1024.82871256 311.46814331 1024.8519554 C269.64753727 1024.87804238 227.82695841 1024.89087205 186.00634393 1024.88376765 C181.5449435 1024.88305161 177.08354307 1024.88237722 172.62214264 1024.8817272 C171.5236781 1024.88155739 170.42521355 1024.88138758 169.2934622 1024.88121263 C152.73046056 1024.87891213 136.1674842 1024.88687473 119.60448822 1024.90001868 C100.76200433 1024.91494513 81.91957958 1024.91575271 63.07709694 1024.89794776 C52.54122856 1024.88840116 42.00549821 1024.88978606 31.46963911 1024.90718245 C24.42051828 1024.9177044 17.37150214 1024.9135261 10.32239155 1024.89770242 C6.31370607 1024.88910602 2.30529019 1024.88655814 -1.703381 1024.90197173 C-42.64438602 1025.04820764 -77.11530248 1015.76252167 -106.94738403 986.57290266 C-135.96429961 957.200417 -143.35573628 920.98533948 -143.21125425 881.10149311 C-143.20098999 877.0250719 -143.21419295 872.94870938 -143.22422758 868.87229679 C-143.23859513 861.74699505 -143.23828525 854.62181479 -143.22803894 847.49650763 C-143.21284353 836.90054364 -143.22067777 826.30468123 -143.23287217 815.70871782 C-143.25388811 796.77904002 -143.25212835 777.84941636 -143.24055652 758.91973346 C-143.23047976 742.35369321 -143.22787426 725.78767277 -143.23264709 709.22163008 C-143.23295263 708.12120285 -143.23325817 707.02077562 -143.23357297 705.8870021 C-143.2348184 701.41959875 -143.23609201 696.95219541 -143.23741203 692.48479207 C-143.24963798 650.6083992 -143.23857013 608.73204073 -143.21702444 566.85565317 C-143.19804314 529.68081816 -143.1997417 492.50603797 -143.21886841 455.33120344 C-143.24030392 413.52961017 -143.24877079 371.72804729 -143.23641935 329.92644928 C-143.23513655 325.46735794 -143.23388519 321.0082666 -143.23264709 316.54917525 C-143.23233078 315.4512967 -143.23201448 314.35341816 -143.23168858 313.22227057 C-143.2271457 296.66984332 -143.2324467 280.11743807 -143.24256531 263.56501387 C-143.2540177 244.7372628 -143.2511103 225.90957416 -143.22944233 207.08183084 C-143.21772574 196.55483192 -143.21688903 186.0279683 -143.23202703 175.50097298 C-143.241035 168.45790125 -143.23534537 161.41493739 -143.21800795 154.37188157 C-143.20854782 150.3667257 -143.20512296 146.36183746 -143.21963188 142.35669057 C-143.29569772 119.66225223 -142.05263801 98.37625378 -132.69738403 77.38540266 C-132.40347778 76.72201887 -132.10957153 76.05863508 -131.80675903 75.37514876 C-117.91355624 44.62319195 -92.82643045 21.00864041 -61.49230591 8.50551985 C-59.23879203 7.65678113 -56.97548283 6.8531243 -54.69738403 6.07290266 C-54.03512817 5.84256331 -53.37287231 5.61222395 -52.69054809 5.37490462 C-50.37675091 4.62608071 -48.04989949 4.00311941 -45.69738403 3.38540266 C-44.75529128 3.13058477 -43.81319854 2.87576688 -42.84255752 2.61322723 C-28.75141104 -0.60066896 -14.36759994 -0.03878125 0 0 Z " fill="#191B1F" transform="translate(147.6973840324208,4.614597337320447)"/>
<path d="M0 0 C4.07900372 0.00766351 8.15797344 -0.00219064 12.23697224 -0.00973 C19.37444207 -0.0205304 26.51184373 -0.02025778 33.64931664 -0.01258852 C44.26325087 -0.00121492 54.87712789 -0.00705586 65.49106177 -0.01621344 C84.45065519 -0.03199322 103.41021824 -0.0306484 122.36981453 -0.0219767 C138.96246508 -0.01442502 155.55510451 -0.01246227 172.14775642 -0.01604463 C173.24910785 -0.01627379 174.35045928 -0.01650294 175.485185 -0.01673904 C179.95612988 -0.01767309 184.42707477 -0.01862829 188.89801964 -0.01961833 C230.82560915 -0.02879209 272.75317934 -0.02048021 314.68076587 -0.00432764 C351.9151592 0.00990781 389.14952174 0.00863574 426.3839148 -0.00571062 C468.23413855 -0.02178162 510.08434524 -0.02814045 551.93457165 -0.01887383 C556.39760101 -0.0179117 560.86063038 -0.01697318 565.32365975 -0.01604463 C566.97198085 -0.01568879 566.97198085 -0.01568879 568.65360137 -0.01532575 C585.23343849 -0.01191617 601.81326327 -0.01589889 618.39309868 -0.02348329 C637.24962137 -0.03206624 656.10610899 -0.02990556 674.96262731 -0.01364106 C685.51041746 -0.00484279 696.05813164 -0.00424186 706.60591979 -0.01557958 C713.65791758 -0.02232246 720.70985466 -0.0180917 727.76184348 -0.00506528 C731.77543645 0.00204776 735.78887884 0.00456007 739.80246689 -0.00628323 C758.098354 -0.05211946 775.87900395 -0.08484688 793.36511597 6.07290266 C794.10060669 6.32563948 794.83609741 6.5783763 795.59387573 6.8387718 C827.89100713 18.34949019 853.78403556 41.44665895 869.16394409 71.98550032 C877.65655238 89.88480124 881.46022585 108.02472334 881.43683704 127.76096342 C881.43879229 129.12346172 881.44118202 130.48595945 881.44396502 131.84845631 C881.45034654 135.5943276 881.45052812 139.34017738 881.44968761 143.08605307 C881.44985747 147.16084181 881.45576772 151.23562294 881.46092847 155.31040786 C881.47024635 163.39321349 881.47417515 171.47601365 881.47644743 179.55882399 C881.47941163 189.24038469 881.48811035 198.92193815 881.49686171 208.60349505 C881.51769857 232.00462608 881.52817485 255.40575838 881.53699132 278.80689653 C881.54119905 289.87949966 881.54642088 300.95210226 881.55167585 312.02470494 C881.56956569 349.93443491 881.58456115 387.84416504 881.59199604 425.7538986 C881.5924708 428.13356927 881.59294669 430.51323993 881.5934237 432.8929106 C881.59377827 434.66304737 881.59377827 434.66304737 881.59413999 436.46894449 C881.59534118 442.44777039 881.59655663 448.4265963 881.59778198 454.40542219 C881.59802213 455.59193355 881.59826228 456.7784449 881.59850971 458.00091115 C881.60640125 496.46360805 881.62983028 534.92627411 881.66233793 573.38895754 C881.69665135 614.06254953 881.71634859 654.73612348 881.71964028 695.40973018 C881.72005781 699.87658897 881.72053737 704.34344775 881.72106346 708.81030653 C881.72118665 709.910157 881.72130985 711.01000747 881.72143677 712.14318674 C881.72376692 729.8279589 881.7394166 747.51269517 881.75990531 765.19745455 C881.78018152 782.981249 881.78563211 800.76500043 881.77613467 818.5488043 C881.7709267 829.1070603 881.77676395 839.6651729 881.79866935 850.22340821 C881.81221267 857.28648503 881.81106933 864.34946352 881.79826739 871.4125414 C881.79139422 875.43018496 881.79061982 879.44755506 881.80782748 883.46517379 C881.95017555 918.94513144 875.86963297 952.15659519 851.30261597 979.38540266 C850.60781128 980.21040266 849.91300659 981.03540266 849.19714722 981.88540266 C828.76202125 1005.70777173 798.54656197 1021.31864536 767.30261597 1024.38540266 C757.3839233 1024.91149441 747.43764836 1024.80163014 737.50777119 1024.77700669 C733.43212716 1024.77024551 729.35652064 1024.78098855 725.28088483 1024.78940253 C718.15075123 1024.80173182 711.02068347 1024.80299809 703.89054283 1024.7968521 C693.28731381 1024.78773697 682.68414537 1024.79581237 672.08092098 1024.80714334 C653.13909238 1024.82678657 634.19729118 1024.82916213 615.25545482 1024.82394813 C598.67641694 1024.81938693 582.09738989 1024.81999517 565.51835236 1024.82578848 C563.29249741 1024.82654536 561.06664246 1024.82730134 558.84078751 1024.82805643 C555.48641345 1024.82920165 552.13203939 1024.83035153 548.77766534 1024.83151567 C517.60069263 1024.84221724 486.42372353 1024.84694947 455.24674973 1024.83904551 C454.07206196 1024.83874833 452.89737419 1024.83845116 451.68708982 1024.83814498 C442.14845831 1024.83569617 432.60982683 1024.83308452 423.07119536 1024.83046085 C385.87016087 1024.82035979 348.66917151 1024.82871256 311.46814331 1024.8519554 C269.64753727 1024.87804238 227.82695841 1024.89087205 186.00634393 1024.88376765 C181.5449435 1024.88305161 177.08354307 1024.88237722 172.62214264 1024.8817272 C171.5236781 1024.88155739 170.42521355 1024.88138758 169.2934622 1024.88121263 C152.73046056 1024.87891213 136.1674842 1024.88687473 119.60448822 1024.90001868 C100.76200433 1024.91494513 81.91957958 1024.91575271 63.07709694 1024.89794776 C52.54122856 1024.88840116 42.00549821 1024.88978606 31.46963911 1024.90718245 C24.42051828 1024.9177044 17.37150214 1024.9135261 10.32239155 1024.89770242 C6.31370607 1024.88910602 2.30529019 1024.88655814 -1.703381 1024.90197173 C-42.64438602 1025.04820764 -77.11530248 1015.76252167 -106.94738403 986.57290266 C-135.96429961 957.200417 -143.35573628 920.98533948 -143.21125425 881.10149311 C-143.20098999 877.0250719 -143.21419295 872.94870938 -143.22422758 868.87229679 C-143.23859513 861.74699505 -143.23828525 854.62181479 -143.22803894 847.49650763 C-143.21284353 836.90054364 -143.22067777 826.30468123 -143.23287217 815.70871782 C-143.25388811 796.77904002 -143.25212835 777.84941636 -143.24055652 758.91973346 C-143.23047976 742.35369321 -143.22787426 725.78767277 -143.23264709 709.22163008 C-143.23295263 708.12120285 -143.23325817 707.02077562 -143.23357297 705.8870021 C-143.2348184 701.41959875 -143.23609201 696.95219541 -143.23741203 692.48479207 C-143.24963798 650.6083992 -143.23857013 608.73204073 -143.21702444 566.85565317 C-143.19804314 529.68081816 -143.1997417 492.50603797 -143.21886841 455.33120344 C-143.24030392 413.52961017 -143.24877079 371.72804729 -143.23641935 329.92644928 C-143.23513655 325.46735794 -143.23388519 321.0082666 -143.23264709 316.54917525 C-143.23233078 315.4512967 -143.23201448 314.35341816 -143.23168858 313.22227057 C-143.2271457 296.66984332 -143.2324467 280.11743807 -143.24256531 263.56501387 C-143.2540177 244.7372628 -143.2511103 225.90957416 -143.22944233 207.08183084 C-143.21772574 196.55483192 -143.21688903 186.0279683 -143.23202703 175.50097298 C-143.241035 168.45790125 -143.23534537 161.41493739 -143.21800795 154.37188157 C-143.20854782 150.3667257 -143.20512296 146.36183746 -143.21963188 142.35669057 C-143.29569772 119.66225223 -142.05263801 98.37625378 -132.69738403 77.38540266 C-132.40347778 76.72201887 -132.10957153 76.05863508 -131.80675903 75.37514876 C-117.91355624 44.62319195 -92.82643045 21.00864041 -61.49230591 8.50551985 C-59.23879203 7.65678113 -56.97548283 6.8531243 -54.69738403 6.07290266 C-54.03512817 5.84256331 -53.37287231 5.61222395 -52.69054809 5.37490462 C-50.37675091 4.62608071 -48.04989949 4.00311941 -45.69738403 3.38540266 C-44.75529128 3.13058477 -43.81319854 2.87576688 -42.84255752 2.61322723 C-28.75141104 -0.60066896 -14.36759994 -0.03878125 0 0 Z M-14.23644653 134.60415266 C-31.08598405 153.64680459 -39.87302999 175.28949106 -39.8288118 200.57098959 C-39.83086443 201.67094639 -39.83291706 202.77090319 -39.8350319 203.90419201 C-39.84068869 207.59192011 -39.83924628 211.2796107 -39.83782593 214.96734236 C-39.84041031 217.63729151 -39.84338502 220.30723767 -39.84682933 222.97718559 C-39.85439249 229.54672519 -39.85660153 236.11625665 -39.85715838 242.68580015 C-39.85807368 250.55672633 -39.86474608 258.42764504 -39.87150521 266.29856799 C-39.88754973 285.31931572 -39.89346652 304.34006263 -39.89825396 323.36081591 C-39.90059123 332.36109558 -39.90419401 341.36137461 -39.90794933 350.36165378 C-39.92078283 381.17894445 -39.93150269 411.99623476 -39.93495193 442.81352804 C-39.93517357 444.74728822 -39.93539535 446.68104839 -39.93561729 448.61480857 C-39.93583792 450.55319392 -39.93605841 452.49157928 -39.93627873 454.42996464 C-39.93672128 458.31859372 -39.9371684 462.2072228 -39.93761841 466.09585188 C-39.9377278 467.06000258 -39.93783719 468.02415329 -39.93794989 469.01752068 C-39.94158071 500.28170974 -39.95750272 531.54587562 -39.98080877 562.81005581 C-40.00541256 595.87562292 -40.019125 628.94117678 -40.02031985 662.00675331 C-40.0204913 665.63741897 -40.02070673 669.26808463 -40.02095428 672.89875029 C-40.02101005 673.79270195 -40.02106582 674.68665361 -40.02112328 675.60769472 C-40.02227317 689.98411768 -40.03328976 704.3605168 -40.04784134 718.73693172 C-40.06221757 733.19013808 -40.06543693 747.64331394 -40.05740136 762.09652549 C-40.05295062 770.67843182 -40.0567835 779.2602396 -40.07263987 787.84213295 C-40.0824117 793.58141564 -40.08119065 799.32062952 -40.07120364 805.05991162 C-40.06582749 808.32553162 -40.06672507 811.59092605 -40.07771236 814.8565374 C-40.12928866 831.22536504 -40.11890971 846.64406484 -32.88488403 861.69790266 C-32.53160034 862.45788557 -32.17831665 863.21786848 -31.81432739 864.00088118 C-20.78124267 887.36902959 -1.74662769 907.58683042 22.87683472 916.70962141 C26.00490064 917.66908519 29.14314542 918.5367151 32.30261597 919.38540266 C33.69480347 919.8997386 33.69480347 919.8997386 35.11511597 920.42446516 C42.6788837 922.70471867 50.59452645 922.53005071 58.43132004 922.51403712 C59.52512254 922.51579015 60.61892503 922.51754319 61.74587306 922.51934935 C65.41264756 922.52400287 69.0793823 922.5215455 72.74615845 922.51911543 C75.4010337 922.52098373 78.055906 922.52324468 80.71078023 922.52598075 C86.48394669 922.53112689 92.25710476 922.53255332 98.03027329 922.53152464 C106.61542379 922.52999866 115.20056503 922.53416381 123.78571373 922.53939927 C140.01165408 922.54906791 156.23759128 922.55188332 172.46353417 922.55245632 C184.99419759 922.55291594 197.52485976 922.55497465 210.05552277 922.55815695 C213.66298891 922.5590545 217.27045505 922.55994431 220.87792119 922.56083183 C221.77475721 922.56105288 222.67159324 922.56127392 223.59560611 922.56150167 C248.82032395 922.56765546 274.04504136 922.57160227 299.26975998 922.57115839 C300.2207 922.57114281 301.17164003 922.57112723 302.15139642 922.57111118 C306.9711132 922.57102808 311.79082998 922.57092904 316.61054676 922.57082648 C317.56775329 922.57080653 318.52495981 922.57078659 319.51117259 922.57076604 C321.44687708 922.5707256 323.38258157 922.5706838 325.31828606 922.57064064 C355.43546336 922.57002787 385.55262939 922.57753494 415.66980347 922.59121321 C449.50929535 922.60657572 483.34877983 922.61517934 517.18827542 922.61424999 C520.79699898 922.61417536 524.40572255 922.61412665 528.01444611 922.61409567 C529.34727697 922.61407819 529.34727697 922.61407819 530.7070337 922.61406035 C545.00201994 922.61402959 559.29699639 922.62041362 573.59197971 922.62902794 C587.96001166 922.63750717 602.32802931 922.63849223 616.69606238 922.63191861 C625.22948883 922.62822485 633.76287182 922.63005016 642.29629366 922.63986095 C648.00071019 922.6458646 653.70509527 922.6445612 659.40951035 922.63739046 C662.65682014 922.63351223 665.90402941 922.63383486 669.15133637 922.64084781 C691.23808067 922.8403147 691.23808067 922.8403147 712.61511597 917.82290266 C713.32385864 917.56460676 714.03260132 917.30631087 714.76282105 917.04018782 C739.94425805 907.46080877 759.94071819 888.79935117 771.30261597 864.38540266 C772.5423173 861.52061741 773.67303198 858.63113196 774.74011597 855.69790266 C774.97512817 855.0582054 775.21014038 854.41850813 775.45227417 853.7594261 C780.40577982 839.11364058 779.5853615 823.73908371 779.55658325 808.49880598 C779.55888912 805.84459975 779.56198482 803.190405 779.56603774 800.53620194 C779.57323762 794.77688896 779.57305649 789.01761353 779.56794342 783.25829886 C779.56036071 774.69382008 779.56425514 766.12937281 779.57036004 757.56489423 C779.58087952 742.26640909 779.57998351 726.96794067 779.57420221 711.66945395 C779.56916779 698.28135714 779.56785924 684.89326646 779.5702475 671.5051689 C779.57040027 670.61652816 779.57055304 669.72788741 779.57071044 668.81231816 C779.57133313 665.20488426 779.57196993 661.59745036 779.57262997 657.99001646 C779.57874567 624.16106675 779.57320468 590.33212767 779.56243617 556.5031796 C779.55294522 526.45919487 779.55379449 496.41522709 779.56335816 466.37124251 C779.57407129 432.603502 779.57831192 398.83577088 779.57213363 365.06802891 C779.57149221 361.46723142 779.57086653 357.86643392 779.5702475 354.26563643 C779.57008934 353.37905167 779.56993119 352.49246692 779.56976824 351.57901596 C779.5674949 338.20051585 779.57015087 324.82202255 779.5752066 311.44352339 C779.58092756 296.22903277 779.57949024 281.01456147 779.56864512 265.80007325 C779.56277804 257.28884587 779.56238127 248.77766035 779.56993747 240.26643407 C779.57443078 234.57695363 779.57161567 228.88750665 779.56292793 223.19803116 C779.55818328 219.95932522 779.55762424 216.72071839 779.56373989 213.48201231 C779.62280359 179.60218159 772.4388092 154.26113992 748.54870972 129.47134016 C730.13735401 111.74595151 705.37245195 103.20095066 680.16273865 103.25956152 C678.52023732 103.25738136 678.52023732 103.25738136 676.84455415 103.25515716 C673.17374107 103.25150648 669.50296976 103.25497929 665.83215698 103.25841902 C663.17443106 103.25726684 660.51670802 103.25571965 657.85898289 103.25369178 C652.07969417 103.25008362 646.30041479 103.25018749 640.52112564 103.25273894 C631.92708776 103.25652272 623.33305776 103.25458699 614.73901993 103.25153063 C599.38972771 103.24626503 584.04043965 103.24672123 568.69114703 103.24960954 C555.25874926 103.25212475 541.82635303 103.25278196 528.39395508 103.2515869 C527.50307253 103.25151051 526.61218999 103.25143413 525.694311 103.25135543 C522.07795993 103.25104409 518.46160886 103.25072569 514.84525779 103.25039566 C480.91871562 103.24733642 446.99217611 103.25011051 413.06563435 103.25549256 C382.92164503 103.26023819 352.77765994 103.25981356 322.63367066 103.25503157 C288.76931395 103.24967734 254.9049596 103.24755338 221.04060253 103.25064383 C217.43082731 103.25096455 213.82105208 103.25127739 210.21127686 103.2515869 C208.87804146 103.25170551 208.87804146 103.25170551 207.51787201 103.25182653 C194.09367184 103.25296416 180.66947337 103.25163341 167.24527344 103.24910734 C151.98190183 103.24624952 136.71853505 103.24695986 121.45516404 103.25238809 C112.91202183 103.2553261 104.36889004 103.25551355 95.8257481 103.25174191 C90.11996031 103.24950064 84.41418088 103.2508931 78.70839433 103.25524668 C75.45704223 103.25762646 72.20571499 103.25788738 68.95436284 103.2548407 C65.45038631 103.25180854 61.94646682 103.25491055 58.44249329 103.25956152 C57.43551057 103.25722036 56.42852786 103.25487919 55.39103052 103.25246708 C28.48174125 103.32405583 4.26614747 115.28766156 -14.23644653 134.60415266 Z " fill="#17D7A0" transform="translate(147.6973840324208,4.614597337320447)"/>
<path d="M0 0 C1.0938025 -0.00175304 2.18760499 -0.00350607 3.31455302 -0.00531223 C6.98132752 -0.00996576 10.64806226 -0.00750838 14.31483841 -0.00507832 C16.96971366 -0.00694661 19.62458596 -0.00920756 22.27946019 -0.01194364 C28.05262665 -0.01708977 33.82578472 -0.0185162 39.59895325 -0.01748753 C48.18410375 -0.01596154 56.76924499 -0.02012669 65.35439369 -0.02536215 C81.58033404 -0.0350308 97.80627124 -0.03784621 114.03221413 -0.03841921 C126.56287755 -0.03887882 139.09353972 -0.04093753 151.62420273 -0.04411983 C155.23166887 -0.04501738 158.83913501 -0.0459072 162.44660115 -0.04679471 C163.34343718 -0.04701576 164.2402732 -0.04723681 165.16428607 -0.04746456 C190.38900391 -0.05361834 215.61372132 -0.05756516 240.83843994 -0.05712128 C242.26484998 -0.05709791 242.26484998 -0.05709791 243.72007638 -0.05707407 C248.53979316 -0.05699096 253.35950994 -0.05689192 258.17922673 -0.05678936 C259.61503651 -0.05675944 259.61503651 -0.05675944 261.07985255 -0.05672892 C263.01555704 -0.05668848 264.95126153 -0.05664669 266.88696602 -0.05660353 C297.00414332 -0.05599076 327.12130936 -0.06349783 357.23848343 -0.07717609 C391.07797531 -0.0925386 424.9174598 -0.10114222 458.75695539 -0.10021287 C462.36567895 -0.10013824 465.97440251 -0.10008953 469.58312607 -0.10005856 C470.47167998 -0.1000469 471.36023388 -0.10003525 472.27571367 -0.10002324 C486.5706999 -0.09999248 500.86567635 -0.1063765 515.16065967 -0.11499082 C529.52869162 -0.12347006 543.89670928 -0.12445512 558.26474234 -0.1178815 C566.79816879 -0.11418773 575.33155178 -0.11601305 583.86497362 -0.12582384 C589.56939015 -0.13182749 595.27377523 -0.13052408 600.97819031 -0.12335334 C604.2255001 -0.11947511 607.47270937 -0.11979774 610.72001633 -0.12681069 C640.90666486 -0.18768036 640.90666486 -0.18768036 654.18379593 4.69113445 C654.8925386 4.94943035 655.60128128 5.20772625 656.33150101 5.4738493 C681.74516545 15.14157099 701.13722732 33.74041868 712.87129593 58.12863445 C718.89423961 71.79438442 721.02888718 84.39878995 721.00272369 99.2305479 C721.00580264 100.86692151 721.00580264 100.86692151 721.0089438 102.53635317 C721.01460005 106.19334571 721.01315824 109.85030043 721.01173782 113.50729656 C721.01432224 116.15519634 721.01729697 118.8030931 721.02074122 121.45099163 C721.02830408 127.96605888 721.03051341 134.48111793 721.03107028 140.99618911 C721.03198561 148.80201459 721.03865817 156.60783253 721.0454171 164.41365475 C721.06146183 183.27789057 721.06737859 202.14212557 721.07216585 221.00636699 C721.07450327 229.93355944 721.07810608 238.86075125 721.08186123 247.7879432 C721.09469522 278.35775416 721.10541466 308.92756476 721.10886383 339.49737835 C721.10908546 341.41564238 721.10930725 343.33390641 721.10952918 345.25217044 C721.10974982 347.17501473 721.1099703 349.09785902 721.11019063 351.02070332 C721.11063318 354.87813218 721.11108029 358.73556105 721.1115303 362.59298992 C721.11163969 363.54940489 721.11174909 364.50581986 721.11186179 365.49121711 C721.11549195 396.49891766 721.13141124 427.50659482 721.15472067 458.51428641 C721.17933044 491.31184986 721.19303719 524.10939994 721.19423175 556.90697289 C721.1944032 560.5090278 721.19461862 564.11108271 721.19486618 567.71313763 C721.19492195 568.60003869 721.19497772 569.48693976 721.19503518 570.40071661 C721.1961846 584.65772603 721.20719727 598.91471141 721.22175324 613.17171272 C721.23613724 627.50845217 721.23934446 641.84516088 721.23131326 656.18190557 C721.22686605 664.69229458 721.23068116 673.20258416 721.24655176 681.71296005 C721.25633602 687.407124 721.2550908 693.10121865 721.24511554 698.79538203 C721.23974822 702.03359223 721.24061578 705.27157561 721.25162426 708.50977695 C721.3609469 742.85337323 713.45356044 768.69128815 689.40645218 793.69113445 C671.24523128 811.09689691 646.48202317 819.31201906 621.73141861 819.25447559 C620.63641773 819.25592903 619.54141684 819.25738248 618.41323411 819.25887996 C614.74242104 819.26253063 611.07164972 819.25905783 607.40083694 819.2556181 C604.74311102 819.25677028 602.08538798 819.25831746 599.42766285 819.26034534 C593.64837413 819.26395349 587.86909475 819.26384963 582.0898056 819.26129818 C573.49576772 819.25751439 564.90173772 819.25945012 556.30769989 819.26250649 C540.95840767 819.26777208 525.60911961 819.26731589 510.25982699 819.26442757 C496.82742923 819.26191236 483.39503299 819.26125516 469.96263504 819.26245022 C468.62631122 819.2625648 468.62631122 819.2625648 467.26299096 819.26268169 C463.64663989 819.26299302 460.03028882 819.26331142 456.41393775 819.26364145 C422.48739559 819.26670069 388.56085607 819.26392661 354.63431431 819.25854455 C324.49032499 819.25379893 294.3463399 819.25422355 264.20235062 819.25900555 C230.33799392 819.26435977 196.47363956 819.26648373 162.60928249 819.26339328 C158.99950727 819.26307256 155.38973204 819.26275972 151.77995682 819.26245022 C150.89113322 819.26237114 150.00230962 819.26229206 149.08655197 819.26221059 C135.66235181 819.26107295 122.23815333 819.26240371 108.8139534 819.26492977 C93.5505818 819.26778759 78.28721501 819.26707726 63.023844 819.26164903 C54.48070179 819.25871102 45.93757001 819.25852357 37.39442806 819.2622952 C31.68864027 819.26453647 25.98286084 819.26314401 20.27707429 819.25879043 C17.0257222 819.25641066 13.77439495 819.25614974 10.5230428 819.25919642 C7.01906627 819.26222858 3.51514678 819.25912657 0.01117325 819.25447559 C-0.99580947 819.25681676 -2.00279218 819.25915793 -3.04028952 819.26157004 C-28.64155982 819.1934611 -51.68544606 808.40299496 -70.00370407 790.69113445 C-87.72577731 772.13874446 -98.50472459 748.47780361 -98.37759304 722.68019199 C-98.38020033 721.57612993 -98.38280761 720.47206786 -98.3854939 719.33454937 C-98.39177673 715.64491107 -98.38384124 711.95544411 -98.37594223 708.26581097 C-98.37753099 705.58985629 -98.37991222 702.91391291 -98.38325864 700.23796093 C-98.38893077 694.42503758 -98.38720529 688.61215334 -98.38057327 682.79923153 C-98.37073853 674.15522155 -98.37239242 665.5112401 -98.37632357 656.86722678 C-98.38259399 642.32272289 -98.37943244 627.77823523 -98.37072945 613.23373318 C-98.36211237 598.82965094 -98.35720935 584.42557599 -98.35739708 570.02149105 C-98.35740472 569.1252006 -98.35741237 568.22891014 -98.35742025 567.30545937 C-98.35746116 563.66710314 -98.35752677 560.02874692 -98.35762606 556.3903907 C-98.35853197 522.26538372 -98.3485897 488.14038784 -98.3331964 454.01538471 C-98.31957039 423.69652494 -98.31333522 393.37767305 -98.31400681 363.05881023 C-98.31404722 361.11174503 -98.31408758 359.16467984 -98.31412788 357.21761464 C-98.31414824 356.25502251 -98.31416859 355.29243038 -98.31418955 354.3006688 C-98.31429035 349.45511537 -98.31438093 344.60956195 -98.3144598 339.76400852 C-98.31447651 338.80805593 -98.31449323 337.85210334 -98.31451045 336.86718249 C-98.3148756 311.53192511 -98.3103372 286.19666872 -98.30413324 260.86141217 C-98.30391296 259.96022031 -98.30369269 259.05902846 -98.30346575 258.13052776 C-98.30257752 254.5066398 -98.30168912 250.88275185 -98.30077479 247.2588639 C-98.29761515 234.65098466 -98.29610557 222.0431062 -98.2956633 209.43522659 C-98.29506626 193.18930695 -98.29107279 176.94339382 -98.28123184 160.69747697 C-98.27611704 152.10544611 -98.27370741 143.5134248 -98.27522803 134.92139249 C-98.27596249 129.18308633 -98.27305845 123.44478946 -98.26718422 117.70648628 C-98.26393505 114.43659773 -98.26279252 111.16673312 -98.26494481 107.89684306 C-98.26700785 104.37300582 -98.26294846 100.8492268 -98.25733852 97.32539463 C-98.25939384 96.31256623 -98.26144916 95.29973783 -98.26356676 94.25621766 C-98.18298255 66.62548628 -85.13167592 44.49548313 -66.12089157 25.0778532 C-47.87030132 7.76408032 -24.77658473 -0.05062814 0 0 Z M-49.12870407 53.12863445 C-69.10029824 75.17378211 -71.43558797 98.67499601 -71.39612961 127.00125408 C-71.39986897 129.54536122 -71.40447163 132.08946721 -71.40986025 134.63357139 C-71.41952442 140.15244345 -71.42301006 145.67126537 -71.42094803 151.19014454 C-71.41788911 159.39730706 -71.42624163 167.604431 -71.43669728 175.811586 C-71.4560092 191.32470848 -71.46166443 206.83781772 -71.4628114 222.35095081 C-71.46373148 234.33276347 -71.46785332 246.31457097 -71.47421265 258.29638195 C-71.4760078 261.7488288 -71.47778743 265.20127566 -71.4795624 268.65372252 C-71.4800045 269.5120752 -71.48044659 270.37042787 -71.48090209 271.25479123 C-71.49320518 295.38851591 -71.50110374 319.5222388 -71.50021553 343.65596676 C-71.50018437 344.56530462 -71.50015322 345.47464248 -71.50012111 346.41153603 C-71.49995491 351.02015083 -71.49975682 355.62876562 -71.4995517 360.23738042 C-71.49951181 361.15262342 -71.49947192 362.06786642 -71.49943082 363.01084406 C-71.49934994 364.86168673 -71.49926635 366.7125294 -71.49918004 368.56337207 C-71.49795456 397.35874665 -71.5129693 426.15407413 -71.54032516 454.94943523 C-71.57106611 487.32113232 -71.58825649 519.69279846 -71.58639872 552.06451106 C-71.58624946 555.51821534 -71.58615205 558.97191961 -71.58609009 562.42562389 C-71.58606678 563.27597704 -71.58604347 564.12633019 -71.58601946 565.00245162 C-71.58595799 578.66787435 -71.59871216 592.33325606 -71.61595462 605.9986666 C-71.63293271 619.73897736 -71.63486787 633.47922832 -71.62173598 647.21954378 C-71.61436169 655.37449731 -71.61795913 663.52926881 -71.63762066 671.68420294 C-71.6510814 677.78445712 -71.64346886 683.88449842 -71.62787421 689.98475525 C-71.62480656 692.44427719 -71.6284277 694.90381901 -71.63959436 697.36331752 C-71.75457963 724.49651902 -66.79646013 747.30319146 -47.58573532 767.7575407 C-24.42948422 790.10387523 3.00647448 792.44447875 33.66257095 792.38260174 C36.16119459 792.3849091 38.65981755 792.38808747 41.1584391 792.39205623 C46.56858877 792.39864282 51.97868374 792.39908521 57.388834 792.39396191 C65.43416351 792.38636402 73.47945957 792.39028142 81.52478889 792.39637852 C95.89752034 792.40688617 110.27023396 792.40600677 124.64296709 792.4002207 C137.22043601 792.39518242 149.7978984 792.39387952 162.37536812 792.39626598 C163.62856276 792.39649514 163.62856276 792.39649514 164.90707447 792.39672892 C168.29878795 792.39735164 171.69050143 792.39798844 175.0822149 792.39864845 C206.8745226 792.40476129 238.66681898 792.39922761 270.45912493 792.38845466 C298.68433058 792.37896315 326.90951818 792.37981403 355.13472366 792.38937664 C386.87173726 792.40009319 418.60874084 792.40432858 450.34575599 792.39815211 C453.7308505 792.39751071 457.115945 792.39688503 460.50103951 792.39626598 C461.75121554 792.39602875 461.75121554 792.39602875 463.02664766 792.39578673 C475.59471983 792.39351488 488.16278477 792.39616654 500.73085594 792.40122509 C515.02514837 792.40694987 529.31942024 792.40550055 543.61371011 792.3946636 C551.60685735 792.38880312 559.59996002 792.38839018 567.59310607 792.39595595 C573.56922098 792.40098721 579.5452785 792.39550668 585.52138995 792.3860068 C587.9330058 792.38377876 590.34462763 792.38489563 592.7562396 792.38975838 C621.97601883 792.4441423 647.81438125 789.09294655 669.87129593 768.12863445 C692.39598812 744.43001694 694.18835423 717.2402436 694.12526321 686.17950726 C694.12757139 683.6881198 694.1307503 681.19673302 694.1347177 678.70534766 C694.14129683 673.31717848 694.14175231 667.92906426 694.13662338 662.54089451 C694.12901717 654.52822827 694.13294714 646.51559555 694.13904 638.50292949 C694.14954111 624.18781528 694.14867091 609.87271897 694.14288217 595.55760307 C694.13784185 583.03110357 694.13654195 570.50461062 694.13892746 557.97811031 C694.13908023 557.14570251 694.139233 556.31329472 694.1393904 555.45566244 C694.14001312 552.07627673 694.14064993 548.69689102 694.14130993 545.31750531 C694.14742116 513.64850607 694.14189154 481.97951821 694.13111613 450.31052073 C694.12162392 422.19910462 694.12247643 394.08770665 694.13203812 365.9762907 C694.14275594 334.36047641 694.14698942 302.74467216 694.14081359 271.1288563 C694.14017219 267.75641322 694.13954651 264.38397014 694.13892746 261.01152706 C694.1387693 260.1812031 694.13861115 259.35087913 694.1384482 258.49539383 C694.13617697 245.9780205 694.13882685 233.46065445 694.14388657 220.94328213 C694.14961275 206.7065253 694.14815899 192.4697891 694.13732508 178.23303483 C694.13146713 170.27341434 694.13104798 162.31383858 694.13861743 154.35421928 C694.14365238 148.4013747 694.13816299 142.44856928 694.12866828 136.49572916 C694.12644196 134.0949224 694.12755319 131.69410962 694.13241985 129.29330675 C694.18661658 100.32567734 691.34285836 73.35834541 670.37178421 51.6012907 C652.31906894 33.88342893 630.24310114 26.94596396 605.29757977 27 C604.26376914 26.99824696 603.22995851 26.99649393 602.16482028 26.99468777 C598.7020921 26.99003739 595.23940609 26.99249081 591.77667618 26.99492168 C589.26830799 26.99305322 586.7599401 26.99075238 584.25157267 26.98805636 C578.79842908 26.98321416 573.34529819 26.98148354 567.89215279 26.98251247 C559.78271231 26.98403887 551.67328164 26.97987236 543.56384308 26.97463785 C528.23579091 26.9649702 512.90774209 26.96215381 497.57968723 26.96158079 C485.74031589 26.96112108 473.90094585 26.95906189 462.06157494 26.95588017 C458.65243501 26.9549826 455.24329507 26.95409279 451.83415514 26.95320529 C450.98660398 26.95298424 450.13905283 26.95276319 449.2658183 26.95253544 C425.42717513 26.94638166 401.58853242 26.94243483 377.74988842 26.94287872 C376.85122416 26.9428943 375.9525599 26.94290988 375.02666339 26.94292593 C370.47196972 26.94300904 365.91727605 26.94310808 361.36258238 26.94321064 C360.45802234 26.94323058 359.5534623 26.94325053 358.62149135 26.94327108 C356.79224979 26.94331152 354.96300823 26.94335331 353.13376668 26.94339647 C324.68144384 26.94400906 296.22913293 26.93650551 267.77681351 26.92282391 C235.80179054 26.90745467 203.82677542 26.89885821 171.85174853 26.89978713 C168.44040811 26.89986176 165.0290677 26.89991046 161.61772728 26.89994144 C160.77778591 26.8999531 159.93784454 26.89996475 159.0724504 26.89997676 C145.57027422 26.9000075 132.06810841 26.8936284 118.56593531 26.88500918 C104.98871768 26.8765215 91.41151517 26.87555146 77.83429634 26.8821185 C69.77473994 26.88580684 61.71522958 26.88400325 53.65567809 26.87417616 C47.62806196 26.86744949 41.60049975 26.87124903 35.57288296 26.87904938 C33.14152374 26.88058409 30.7101595 26.87876932 28.2788062 26.87318931 C-1.96061225 26.80840828 -27.15502166 30.50302778 -49.12870407 53.12863445 Z " fill="#09090B" transform="translate(206.12870407104492,107.87136554718018)"/>
<path d="M0 0 C12.76758477 10.45233612 22.54093466 24.83153134 24.3125 41.625 C25.68271415 58.57349501 21.61474598 74.83359801 11.17578125 88.40234375 C0.10308829 101.25285128 -14.57402117 110.1563951 -31.70751953 111.82128906 C-50.64870791 113.17575227 -65.7092225 107.45333025 -80.27734375 95.5 C-92.49963279 84.13431583 -99.59859133 68.66971288 -100.22607422 52.08398438 C-100.38826566 34.5673092 -95.15348597 19.7227477 -82.9609375 6.90234375 C-82.21070313 6.15082031 -81.46046875 5.39929688 -80.6875 4.625 C-80.06101562 3.98691406 -79.43453125 3.34882813 -78.7890625 2.69140625 C-57.16748448 -17.78979318 -23.21954974 -17.47329753 0 0 Z " fill="#FDFDFD" transform="translate(349.6875,429.375)"/>
<path d="M0 0 C1.00119873 0.00499512 2.00239746 0.00999023 3.03393555 0.01513672 C21.04701477 0.43354224 35.26054299 7.75790936 47.875 20.5 C60.51749604 34.09381257 63.48377417 49.69006132 63.1875 67.58203125 C62.92757488 74.47546199 61.75627639 80.17744993 58.875 86.5 C58.47410156 87.42296875 58.07320312 88.3459375 57.66015625 89.296875 C49.58419877 105.87014426 34.92318442 116.48061735 17.875 122.5 C5.15358062 125.50721232 -11.35399567 125.2775113 -23.125 119.5 C-24.05054688 119.07589844 -24.97609375 118.65179687 -25.9296875 118.21484375 C-40.22785628 111.10536648 -51.79405813 98.58863759 -57.125 83.5 C-59.6088082 75.93914295 -60.64678516 69.01206239 -60.5625 61.0625 C-60.55114014 59.55091309 -60.55114014 59.55091309 -60.53955078 58.00878906 C-60.37454876 50.558406 -59.42928729 44.25359031 -56.125 37.5 C-55.52365234 36.14648438 -55.52365234 36.14648438 -54.91015625 34.765625 C-47.69705966 19.96309635 -34.32269032 8.38541428 -18.93798828 2.69042969 C-12.54824988 0.61630136 -6.70156092 -0.04431723 0 0 Z " fill="#FEFEFE" transform="translate(720.125,416.5)"/>
<path d="M0 0 C1.17167725 0.44512939 2.34335449 0.89025879 3.55053711 1.34887695 C4.16750458 1.5885318 4.78447205 1.82818665 5.4201355 2.07510376 C8.74943452 3.36487503 12.09539791 4.60982043 15.44140625 5.85546875 C16.1332753 6.11351791 16.82514435 6.37156708 17.53797913 6.63743591 C37.23018173 13.93678625 57.39683961 20.15909157 77.84375 24.9453125 C78.75479492 25.15994141 79.66583984 25.37457031 80.60449219 25.59570312 C93.31957898 28.53781688 106.12901011 30.71363921 119.03125 32.6328125 C119.71434235 32.73554474 120.39743469 32.83827698 121.10122681 32.94412231 C126.00774019 33.67567807 130.92056687 34.33619735 135.84375 34.9453125 C136.98694199 35.08835312 136.98694199 35.08835312 138.15322876 35.23428345 C154.13735237 37.1671854 170.07185756 37.30470029 186.15625 37.2578125 C187.49854525 37.25559018 188.84084059 37.25341366 190.18313599 37.25128174 C209.90726866 37.20789004 229.29976042 36.7860811 248.84375 33.9453125 C249.57043884 33.84114014 250.29712769 33.73696777 251.0458374 33.62963867 C277.64234806 29.80352539 303.45960206 24.55971343 329.19482422 16.74902344 C331.47239051 16.05798674 333.75286253 15.37831994 336.03515625 14.703125 C342.11794958 12.86369845 348.0809109 10.87525981 354.02734375 8.63671875 C355.13021729 8.22534668 356.23309082 7.81397461 357.36938477 7.39013672 C359.54870512 6.57203775 361.72276513 5.73973876 363.89038086 4.89111328 C370.16203884 2.53643657 376.10467449 0.73385466 382.84375 1.9453125 C385.95410383 3.65550961 388.23229037 5.72239325 389.84375 8.9453125 C390.1171875 10.8984375 390.1171875 10.8984375 390.21875 13.1953125 C390.26773437 13.94296875 390.31671875 14.690625 390.3671875 15.4609375 C389.57071572 19.24120656 387.78514883 21.57205672 384.84375 23.9453125 C381.21439084 25.80564673 377.44706394 27.12405656 373.59375 28.4453125 C372.51472412 28.83058105 371.43569824 29.21584961 370.32397461 29.61279297 C368.15668782 30.3846238 365.98670735 31.14893694 363.81396484 31.90527344 C361.3185817 32.77904725 358.83850106 33.68052014 356.36328125 34.609375 C331.64622604 43.80606898 305.5278139 49.85624519 279.59228516 54.45703125 C277.74973744 54.78436252 275.9082587 55.11776542 274.06787109 55.45703125 C222.74039103 64.85514496 169.82280215 64.13875281 118.21875 57.5703125 C117.43181763 57.47134674 116.64488525 57.37238098 115.83410645 57.27041626 C105.03208656 55.89287377 94.48377765 53.92212282 83.88580322 51.42449951 C80.89231406 50.7220491 77.89119888 50.0542542 74.890625 49.3828125 C72.79150889 48.9043375 70.69254638 48.42518805 68.59375 47.9453125 C67.5521875 47.71070313 66.510625 47.47609375 65.4375 47.234375 C51.48977442 44.03945264 37.90586748 39.782518 24.34375 35.2578125 C23.5604834 34.99652557 22.7772168 34.73523865 21.97021484 34.46603394 C12.18171381 31.18869637 2.43401219 27.83447292 -7.15625 24.0078125 C-8.47012695 23.4969812 -8.47012695 23.4969812 -9.81054688 22.97583008 C-14.44765399 21.05921555 -17.50054156 19.41298868 -20.15625 14.9453125 C-21.70492575 10.30735126 -21.6233104 6.89673183 -19.46875 2.5078125 C-13.86079544 -3.70640741 -7.47621512 -2.90309866 0 0 Z " fill="#FCFCFC" transform="translate(332.15625,621.0546875)"/>
</svg>
