<svg xmlns="http://www.w3.org/2000/svg" viewBox="0 0 1072 1072">
  <path fill="#252525" d="M166.7 23.6h739.8c18.3 0 36 0 53.6 6l2.2.9a131 131 0 0 1 73.6 65.1 126 126 0 0 1 12.2 59.9v23.4l.1 123.5.2 430v3.4l.1 171.3c.1 35.5-6 68.7-30.5 95.9l-2.1 2.5A126 126 0 0 1 934 1048q-15 .6-29.8.4H618.4l-453.4.1c-41 .2-75.4-9.1-105.2-38.3-29-29.4-36.5-65.6-36.3-105.5V166c-.1-22.7 1.1-44 10.5-65l.9-2A129 129 0 0 1 112 29.7l2-.7a129 129 0 0 1 9.9-2.8c14-3.2 28.4-2.6 42.8-2.6"/>
  <path fill="#09fe5b" d="M166.7 23.6h739.8c18.3 0 36 0 53.6 6l2.2.9a131 131 0 0 1 73.6 65.1 126 126 0 0 1 12.2 59.9v23.4l.1 123.5.2 430v3.4l.1 171.3c.1 35.5-6 68.7-30.5 95.9l-2.1 2.5A126 126 0 0 1 934 1048q-15 .6-29.8.4H618.4l-453.4.1c-41 .2-75.4-9.1-105.2-38.3-29-29.4-36.5-65.6-36.3-105.5V166c-.1-22.7 1.1-44 10.5-65l.9-2A129 129 0 0 1 112 29.7l2-.7a129 129 0 0 1 9.9-2.8c14-3.2 28.4-2.6 42.8-2.6M172 229l-2.8.8A65 65 0 0 0 132 263a51 51 0 0 0-5.3 22.9V773a78 78 0 0 0 8 40 66 66 0 0 0 40.3 31 42 42 0 0 0 12.3 1.1H328l106-.1-5.8 10.6-1.6 3-11 19.5c-7.5 13-13.4 23.7-9.5 39a42 42 0 0 0 18.8 23 34 34 0 0 0 16 3.4h180c14.3 0 25.2-.7 36-11.1a39 39 0 0 0 10.5-25.2c-.5-11-5.3-20.6-11-29.8q-6.9-11.2-13.1-22.8l-1.6-2.8-3.7-6.8h3.9a48583 48583 0 0 0 202.5.5l25 .1c22.6.2 41.4-3 58.4-19.2a70 70 0 0 0 13-20.6l1-2 .8-2 .8-1.7a60 60 0 0 0 1.7-18V747l.1-18.8V583l.1-11.6v-2.3l.1-161.7v-2.2l.1-110.4a65 65 0 0 0-18.2-49.7 65 65 0 0 0-47-18.7h-171l-250.4.1H369l-177 .1h-3.3c-6 0-11 .6-16.7 2.3"/>
  <path fill="#0b0e0f" d="M191.8 226.9h24.7l110.6-.1h141.2l16-.1h3.3l275.1-.2h120.9c16.9.1 32 7.1 43.8 18.8 10.6 11 18 25 17.9 40.6v498.3q.2 13.2-6 24.8l-1 2a63 63 0 0 1-37.6 31.7c-11.5 3.4-23 3-34.9 2.9h-23.5l-60.7-.2-36.4-.1h-2.3L638 845l5.8 10.6 1.6 3q5.5 10.1 11.6 20c7 11.4 12.5 22.7 9.3 36.4a41 41 0 0 1-19.4 25.2c-9.4 3.9-19 3.4-28.9 3.3l-22.3.1h-79.1l-67.4.2c-13.3 0-23.1-1.3-33.6-10.4a41 41 0 0 1-11-30c1-10.2 7.7-19.9 12.6-28.6l2-3.4 10.5-18.8 1.3-2.3 3-5.3-107.8.2H324l-115.4.3h-7.3c-22 .1-39.6-3-56.3-18.5a62 62 0 0 1-18.3-45.2V573.6l-.2-166.2V294.9a65 65 0 0 1 18.2-49.6 62 62 0 0 1 47.1-18.4M165 265c-4.7 6.2-8 12.5-10 20l-.5 1.6c-.7 3.5-.6 7-.6 10.6v199.6l-.1 159.4v118.3a50 50 0 0 0 13.4 34.4 48 48 0 0 0 35.4 13.4h128.1l130.1.1h3l393.6.2c19.5.1 33-.7 47.7-14.6q13.1-13.5 13-32.2V724l.1-152.8.1-155.5V307.3c.2-17.2-1.6-31.4-13.6-44.7-11.7-11-26-14-41.5-13.9H363.4l-160.8-.1A51 51 0 0 0 165 265"/>
  <path fill="#fefefe" d="M432 585h208c0 25.7-8.4 50.8-26 70l-1.4 1.5A108 108 0 0 1 573 684l-3.3 1.5a98 98 0 0 1-73.8-2.7 107 107 0 0 1-57.2-60l-.7-1.8-1.2-3.2A92 92 0 0 1 432 585m330-171q4 3 7 7l1.4 1.6A48 48 0 0 1 779 454v33.7l.2 51a50 50 0 0 1-14.8 35.2A48 48 0 0 1 729 585a47 47 0 0 1-31.8-18.1c-9.6-13.1-8.8-28.2-8.7-43.7v-60.8c-.1-17.9 1.1-31.5 13.8-45 17.6-16.8 40-15.1 59.7-3.4m-396.2-.7A47 47 0 0 1 384 440l.1 4.5v5.8l.1 3.2v13.9l.3 70.4v3c0 12.2-5.3 23.5-13.6 32.5a50 50 0 0 1-36.2 12.2A48 48 0 0 1 312 576l-1.8-1.3A44 44 0 0 1 295 549q-.5-5.5-.4-11v-3.2l-.1-32.9-.1-41.6c-.1-16.3.4-28.1 11.4-41a46 46 0 0 1 60-6"/>
</svg>
