<?xml version="1.0" encoding="UTF-8"?>
<svg version="1.1" xmlns="http://www.w3.org/2000/svg" width="1072" height="1072">
<path d="M0 0 C4.07900372 0.00766351 8.15797344 -0.00219064 12.23697224 -0.00973 C19.37444207 -0.0205304 26.51184373 -0.02025778 33.64931664 -0.01258852 C44.26325087 -0.00121492 54.87712789 -0.00705586 65.49106177 -0.01621344 C84.45065519 -0.03199322 103.41021824 -0.0306484 122.36981453 -0.0219767 C138.96246508 -0.01442502 155.55510451 -0.01246227 172.14775642 -0.01604463 C173.24910785 -0.01627379 174.35045928 -0.01650294 175.485185 -0.01673904 C179.95612988 -0.01767309 184.42707477 -0.01862829 188.89801964 -0.01961833 C230.82560915 -0.02879209 272.75317934 -0.02048021 314.68076587 -0.00432764 C351.9151592 0.00990781 389.14952174 0.00863574 426.3839148 -0.00571062 C468.23413855 -0.02178162 510.08434524 -0.02814045 551.93457165 -0.01887383 C556.39760101 -0.0179117 560.86063038 -0.01697318 565.32365975 -0.01604463 C566.97198085 -0.01568879 566.97198085 -0.01568879 568.65360137 -0.01532575 C585.23343849 -0.01191617 601.81326327 -0.01589889 618.39309868 -0.02348329 C637.24962137 -0.03206624 656.10610899 -0.02990556 674.96262731 -0.01364106 C685.51041746 -0.00484279 696.05813164 -0.00424186 706.60591979 -0.01557958 C713.65791758 -0.02232246 720.70985466 -0.0180917 727.76184348 -0.00506528 C731.77543645 0.00204776 735.78887884 0.00456007 739.80246689 -0.00628323 C758.098354 -0.05211946 775.87900395 -0.08484688 793.36511597 6.07290266 C794.10060669 6.32563948 794.83609741 6.5783763 795.59387573 6.8387718 C827.89100713 18.34949019 853.78403556 41.44665895 869.16394409 71.98550032 C877.65655238 89.88480124 881.46022585 108.02472334 881.43683704 127.76096342 C881.43879229 129.12346172 881.44118202 130.48595945 881.44396502 131.84845631 C881.45034654 135.5943276 881.45052812 139.34017738 881.44968761 143.08605307 C881.44985747 147.16084181 881.45576772 151.23562294 881.46092847 155.31040786 C881.47024635 163.39321349 881.47417515 171.47601365 881.47644743 179.55882399 C881.47941163 189.24038469 881.48811035 198.92193815 881.49686171 208.60349505 C881.51769857 232.00462608 881.52817485 255.40575838 881.53699132 278.80689653 C881.54119905 289.87949966 881.54642088 300.95210226 881.55167585 312.02470494 C881.56956569 349.93443491 881.58456115 387.84416504 881.59199604 425.7538986 C881.5924708 428.13356927 881.59294669 430.51323993 881.5934237 432.8929106 C881.59377827 434.66304737 881.59377827 434.66304737 881.59413999 436.46894449 C881.59534118 442.44777039 881.59655663 448.4265963 881.59778198 454.40542219 C881.59802213 455.59193355 881.59826228 456.7784449 881.59850971 458.00091115 C881.60640125 496.46360805 881.62983028 534.92627411 881.66233793 573.38895754 C881.69665135 614.06254953 881.71634859 654.73612348 881.71964028 695.40973018 C881.72005781 699.87658897 881.72053737 704.34344775 881.72106346 708.81030653 C881.72118665 709.910157 881.72130985 711.01000747 881.72143677 712.14318674 C881.72376692 729.8279589 881.7394166 747.51269517 881.75990531 765.19745455 C881.78018152 782.981249 881.78563211 800.76500043 881.77613467 818.5488043 C881.7709267 829.1070603 881.77676395 839.6651729 881.79866935 850.22340821 C881.81221267 857.28648503 881.81106933 864.34946352 881.79826739 871.4125414 C881.79139422 875.43018496 881.79061982 879.44755506 881.80782748 883.46517379 C881.95017555 918.94513144 875.86963297 952.15659519 851.30261597 979.38540266 C850.60781128 980.21040266 849.91300659 981.03540266 849.19714722 981.88540266 C828.76202125 1005.70777173 798.54656197 1021.31864536 767.30261597 1024.38540266 C757.3839233 1024.91149441 747.43764836 1024.80163014 737.50777119 1024.77700669 C733.43212716 1024.77024551 729.35652064 1024.78098855 725.28088483 1024.78940253 C718.15075123 1024.80173182 711.02068347 1024.80299809 703.89054283 1024.7968521 C693.28731381 1024.78773697 682.68414537 1024.79581237 672.08092098 1024.80714334 C653.13909238 1024.82678657 634.19729118 1024.82916213 615.25545482 1024.82394813 C598.67641694 1024.81938693 582.09738989 1024.81999517 565.51835236 1024.82578848 C563.29249741 1024.82654536 561.06664246 1024.82730134 558.84078751 1024.82805643 C555.48641345 1024.82920165 552.13203939 1024.83035153 548.77766534 1024.83151567 C517.60069263 1024.84221724 486.42372353 1024.84694947 455.24674973 1024.83904551 C454.07206196 1024.83874833 452.89737419 1024.83845116 451.68708982 1024.83814498 C442.14845831 1024.83569617 432.60982683 1024.83308452 423.07119536 1024.83046085 C385.87016087 1024.82035979 348.66917151 1024.82871256 311.46814331 1024.8519554 C269.64753727 1024.87804238 227.82695841 1024.89087205 186.00634393 1024.88376765 C181.5449435 1024.88305161 177.08354307 1024.88237722 172.62214264 1024.8817272 C171.5236781 1024.88155739 170.42521355 1024.88138758 169.2934622 1024.88121263 C152.73046056 1024.87891213 136.1674842 1024.88687473 119.60448822 1024.90001868 C100.76200433 1024.91494513 81.91957958 1024.91575271 63.07709694 1024.89794776 C52.54122856 1024.88840116 42.00549821 1024.88978606 31.46963911 1024.90718245 C24.42051828 1024.9177044 17.37150214 1024.9135261 10.32239155 1024.89770242 C6.31370607 1024.88910602 2.30529019 1024.88655814 -1.703381 1024.90197173 C-42.64438602 1025.04820764 -77.11530248 1015.76252167 -106.94738403 986.57290266 C-135.96429961 957.200417 -143.35573628 920.98533948 -143.21125425 881.10149311 C-143.20098999 877.0250719 -143.21419295 872.94870938 -143.22422758 868.87229679 C-143.23859513 861.74699505 -143.23828525 854.62181479 -143.22803894 847.49650763 C-143.21284353 836.90054364 -143.22067777 826.30468123 -143.23287217 815.70871782 C-143.25388811 796.77904002 -143.25212835 777.84941636 -143.24055652 758.91973346 C-143.23047976 742.35369321 -143.22787426 725.78767277 -143.23264709 709.22163008 C-143.23295263 708.12120285 -143.23325817 707.02077562 -143.23357297 705.8870021 C-143.2348184 701.41959875 -143.23609201 696.95219541 -143.23741203 692.48479207 C-143.24963798 650.6083992 -143.23857013 608.73204073 -143.21702444 566.85565317 C-143.19804314 529.68081816 -143.1997417 492.50603797 -143.21886841 455.33120344 C-143.24030392 413.52961017 -143.24877079 371.72804729 -143.23641935 329.92644928 C-143.23513655 325.46735794 -143.23388519 321.0082666 -143.23264709 316.54917525 C-143.23233078 315.4512967 -143.23201448 314.35341816 -143.23168858 313.22227057 C-143.2271457 296.66984332 -143.2324467 280.11743807 -143.24256531 263.56501387 C-143.2540177 244.7372628 -143.2511103 225.90957416 -143.22944233 207.08183084 C-143.21772574 196.55483192 -143.21688903 186.0279683 -143.23202703 175.50097298 C-143.241035 168.45790125 -143.23534537 161.41493739 -143.21800795 154.37188157 C-143.20854782 150.3667257 -143.20512296 146.36183746 -143.21963188 142.35669057 C-143.29569772 119.66225223 -142.05263801 98.37625378 -132.69738403 77.38540266 C-132.40347778 76.72201887 -132.10957153 76.05863508 -131.80675903 75.37514876 C-117.91355624 44.62319195 -92.82643045 21.00864041 -61.49230591 8.50551985 C-59.23879203 7.65678113 -56.97548283 6.8531243 -54.69738403 6.07290266 C-54.03512817 5.84256331 -53.37287231 5.61222395 -52.69054809 5.37490462 C-50.37675091 4.62608071 -48.04989949 4.00311941 -45.69738403 3.38540266 C-44.75529128 3.13058477 -43.81319854 2.87576688 -42.84255752 2.61322723 C-28.75141104 -0.60066896 -14.36759994 -0.03878125 0 0 Z " fill="#252525" transform="translate(166.6973840324208,23.614597337320447)"/>
<path d="M0 0 C4.07900372 0.00766351 8.15797344 -0.00219064 12.23697224 -0.00973 C19.37444207 -0.0205304 26.51184373 -0.02025778 33.64931664 -0.01258852 C44.26325087 -0.00121492 54.87712789 -0.00705586 65.49106177 -0.01621344 C84.45065519 -0.03199322 103.41021824 -0.0306484 122.36981453 -0.0219767 C138.96246508 -0.01442502 155.55510451 -0.01246227 172.14775642 -0.01604463 C173.24910785 -0.01627379 174.35045928 -0.01650294 175.485185 -0.01673904 C179.95612988 -0.01767309 184.42707477 -0.01862829 188.89801964 -0.01961833 C230.82560915 -0.02879209 272.75317934 -0.02048021 314.68076587 -0.00432764 C351.9151592 0.00990781 389.14952174 0.00863574 426.3839148 -0.00571062 C468.23413855 -0.02178162 510.08434524 -0.02814045 551.93457165 -0.01887383 C556.39760101 -0.0179117 560.86063038 -0.01697318 565.32365975 -0.01604463 C566.97198085 -0.01568879 566.97198085 -0.01568879 568.65360137 -0.01532575 C585.23343849 -0.01191617 601.81326327 -0.01589889 618.39309868 -0.02348329 C637.24962137 -0.03206624 656.10610899 -0.02990556 674.96262731 -0.01364106 C685.51041746 -0.00484279 696.05813164 -0.00424186 706.60591979 -0.01557958 C713.65791758 -0.02232246 720.70985466 -0.0180917 727.76184348 -0.00506528 C731.77543645 0.00204776 735.78887884 0.00456007 739.80246689 -0.00628323 C758.098354 -0.05211946 775.87900395 -0.08484688 793.36511597 6.07290266 C794.10060669 6.32563948 794.83609741 6.5783763 795.59387573 6.8387718 C827.89100713 18.34949019 853.78403556 41.44665895 869.16394409 71.98550032 C877.65655238 89.88480124 881.46022585 108.02472334 881.43683704 127.76096342 C881.43879229 129.12346172 881.44118202 130.48595945 881.44396502 131.84845631 C881.45034654 135.5943276 881.45052812 139.34017738 881.44968761 143.08605307 C881.44985747 147.16084181 881.45576772 151.23562294 881.46092847 155.31040786 C881.47024635 163.39321349 881.47417515 171.47601365 881.47644743 179.55882399 C881.47941163 189.24038469 881.48811035 198.92193815 881.49686171 208.60349505 C881.51769857 232.00462608 881.52817485 255.40575838 881.53699132 278.80689653 C881.54119905 289.87949966 881.54642088 300.95210226 881.55167585 312.02470494 C881.56956569 349.93443491 881.58456115 387.84416504 881.59199604 425.7538986 C881.5924708 428.13356927 881.59294669 430.51323993 881.5934237 432.8929106 C881.59377827 434.66304737 881.59377827 434.66304737 881.59413999 436.46894449 C881.59534118 442.44777039 881.59655663 448.4265963 881.59778198 454.40542219 C881.59802213 455.59193355 881.59826228 456.7784449 881.59850971 458.00091115 C881.60640125 496.46360805 881.62983028 534.92627411 881.66233793 573.38895754 C881.69665135 614.06254953 881.71634859 654.73612348 881.71964028 695.40973018 C881.72005781 699.87658897 881.72053737 704.34344775 881.72106346 708.81030653 C881.72118665 709.910157 881.72130985 711.01000747 881.72143677 712.14318674 C881.72376692 729.8279589 881.7394166 747.51269517 881.75990531 765.19745455 C881.78018152 782.981249 881.78563211 800.76500043 881.77613467 818.5488043 C881.7709267 829.1070603 881.77676395 839.6651729 881.79866935 850.22340821 C881.81221267 857.28648503 881.81106933 864.34946352 881.79826739 871.4125414 C881.79139422 875.43018496 881.79061982 879.44755506 881.80782748 883.46517379 C881.95017555 918.94513144 875.86963297 952.15659519 851.30261597 979.38540266 C850.60781128 980.21040266 849.91300659 981.03540266 849.19714722 981.88540266 C828.76202125 1005.70777173 798.54656197 1021.31864536 767.30261597 1024.38540266 C757.3839233 1024.91149441 747.43764836 1024.80163014 737.50777119 1024.77700669 C733.43212716 1024.77024551 729.35652064 1024.78098855 725.28088483 1024.78940253 C718.15075123 1024.80173182 711.02068347 1024.80299809 703.89054283 1024.7968521 C693.28731381 1024.78773697 682.68414537 1024.79581237 672.08092098 1024.80714334 C653.13909238 1024.82678657 634.19729118 1024.82916213 615.25545482 1024.82394813 C598.67641694 1024.81938693 582.09738989 1024.81999517 565.51835236 1024.82578848 C563.29249741 1024.82654536 561.06664246 1024.82730134 558.84078751 1024.82805643 C555.48641345 1024.82920165 552.13203939 1024.83035153 548.77766534 1024.83151567 C517.60069263 1024.84221724 486.42372353 1024.84694947 455.24674973 1024.83904551 C454.07206196 1024.83874833 452.89737419 1024.83845116 451.68708982 1024.83814498 C442.14845831 1024.83569617 432.60982683 1024.83308452 423.07119536 1024.83046085 C385.87016087 1024.82035979 348.66917151 1024.82871256 311.46814331 1024.8519554 C269.64753727 1024.87804238 227.82695841 1024.89087205 186.00634393 1024.88376765 C181.5449435 1024.88305161 177.08354307 1024.88237722 172.62214264 1024.8817272 C171.5236781 1024.88155739 170.42521355 1024.88138758 169.2934622 1024.88121263 C152.73046056 1024.87891213 136.1674842 1024.88687473 119.60448822 1024.90001868 C100.76200433 1024.91494513 81.91957958 1024.91575271 63.07709694 1024.89794776 C52.54122856 1024.88840116 42.00549821 1024.88978606 31.46963911 1024.90718245 C24.42051828 1024.9177044 17.37150214 1024.9135261 10.32239155 1024.89770242 C6.31370607 1024.88910602 2.30529019 1024.88655814 -1.703381 1024.90197173 C-42.64438602 1025.04820764 -77.11530248 1015.76252167 -106.94738403 986.57290266 C-135.96429961 957.200417 -143.35573628 920.98533948 -143.21125425 881.10149311 C-143.20098999 877.0250719 -143.21419295 872.94870938 -143.22422758 868.87229679 C-143.23859513 861.74699505 -143.23828525 854.62181479 -143.22803894 847.49650763 C-143.21284353 836.90054364 -143.22067777 826.30468123 -143.23287217 815.70871782 C-143.25388811 796.77904002 -143.25212835 777.84941636 -143.24055652 758.91973346 C-143.23047976 742.35369321 -143.22787426 725.78767277 -143.23264709 709.22163008 C-143.23295263 708.12120285 -143.23325817 707.02077562 -143.23357297 705.8870021 C-143.2348184 701.41959875 -143.23609201 696.95219541 -143.23741203 692.48479207 C-143.24963798 650.6083992 -143.23857013 608.73204073 -143.21702444 566.85565317 C-143.19804314 529.68081816 -143.1997417 492.50603797 -143.21886841 455.33120344 C-143.24030392 413.52961017 -143.24877079 371.72804729 -143.23641935 329.92644928 C-143.23513655 325.46735794 -143.23388519 321.0082666 -143.23264709 316.54917525 C-143.23233078 315.4512967 -143.23201448 314.35341816 -143.23168858 313.22227057 C-143.2271457 296.66984332 -143.2324467 280.11743807 -143.24256531 263.56501387 C-143.2540177 244.7372628 -143.2511103 225.90957416 -143.22944233 207.08183084 C-143.21772574 196.55483192 -143.21688903 186.0279683 -143.23202703 175.50097298 C-143.241035 168.45790125 -143.23534537 161.41493739 -143.21800795 154.37188157 C-143.20854782 150.3667257 -143.20512296 146.36183746 -143.21963188 142.35669057 C-143.29569772 119.66225223 -142.05263801 98.37625378 -132.69738403 77.38540266 C-132.40347778 76.72201887 -132.10957153 76.05863508 -131.80675903 75.37514876 C-117.91355624 44.62319195 -92.82643045 21.00864041 -61.49230591 8.50551985 C-59.23879203 7.65678113 -56.97548283 6.8531243 -54.69738403 6.07290266 C-54.03512817 5.84256331 -53.37287231 5.61222395 -52.69054809 5.37490462 C-50.37675091 4.62608071 -48.04989949 4.00311941 -45.69738403 3.38540266 C-44.75529128 3.13058477 -43.81319854 2.87576688 -42.84255752 2.61322723 C-28.75141104 -0.60066896 -14.36759994 -0.03878125 0 0 Z M5.30261597 205.38540266 C4.37835816 205.65739485 3.45410034 205.92938704 2.50183472 206.20962141 C-14.63000698 212.09785938 -26.30925672 223.63587032 -34.69738403 239.38540266 C-38.26065175 247.09565189 -39.99798823 253.81729425 -39.95185963 262.24054621 C-39.95666934 263.54900495 -39.95666934 263.54900495 -39.96157623 264.8838972 C-39.96988299 267.80928596 -39.9639495 270.73447035 -39.95808044 273.6598625 C-39.96110082 275.77750034 -39.96498974 277.89513708 -39.96967301 280.01277189 C-39.97997657 285.83421676 -39.97776516 291.6556002 -39.97349242 297.47705017 C-39.97102943 303.75465904 -39.98003411 310.03225297 -39.98752991 316.3098564 C-40.00029145 328.61003122 -40.00207456 340.91018036 -39.99972964 353.21036017 C-39.99789686 363.20818672 -39.99965629 373.20600686 -40.00395409 383.20383261 C-40.00455649 384.64032006 -40.00515769 386.0768075 -40.00575769 387.51329495 C-40.00666495 389.67797926 -40.00757361 391.84266358 -40.00849004 394.00734788 C-40.01692019 414.13503569 -40.02125492 434.26272108 -40.01708332 454.39041041 C-40.01692694 455.14923585 -40.01677057 455.90806129 -40.01660945 456.68988144 C-40.01580367 460.53587644 -40.0149579 464.38187143 -40.01409615 468.22786642 C-40.01392506 468.99168666 -40.01375398 469.7555069 -40.0135777 470.54247321 C-40.01323105 472.08710433 -40.01288252 473.63173546 -40.01253212 475.17636658 C-40.00717636 499.20431175 -40.01510094 523.2322202 -40.03356567 547.26015852 C-40.05428955 574.25947517 -40.06500752 601.25876907 -40.06099019 628.25809412 C-40.06059485 631.13802737 -40.0602333 634.01796063 -40.05989281 636.89789389 C-40.05980207 637.60699866 -40.05971134 638.31610343 -40.05961786 639.04669622 C-40.05845261 649.74443854 -40.06509477 660.44215788 -40.07570473 671.13989447 C-40.08776306 683.31036764 -40.08903062 695.48077438 -40.07691456 707.6512512 C-40.07102108 713.86026358 -40.0699395 720.06917714 -40.08191696 726.27818297 C-40.09275941 731.96494456 -40.08969169 737.65152462 -40.07565528 743.33827766 C-40.07300383 745.39277699 -40.07538892 747.44729047 -40.08339114 749.50177593 C-40.13239829 763.02526764 -39.4377775 775.17880193 -33.13488403 787.44790266 C-32.78828735 788.12345198 -32.44169067 788.7990013 -32.08459106 789.4950218 C-23.48883373 805.51923491 -8.77019966 815.1250028 8.30261597 820.38540266 C11.55288626 821.12894295 14.55310453 821.51009408 17.88466724 821.50845049 C18.77940496 821.51044154 19.67414268 821.51243259 20.59599367 821.51448397 C21.56973032 821.51157113 22.54346698 821.50865829 23.54671082 821.50565718 C25.10895245 821.50693882 25.10895245 821.50693882 26.70275452 821.50824635 C30.19740349 821.50989526 33.69200461 821.50438934 37.18664917 821.49892805 C39.6898179 821.49864603 42.19298671 821.49880421 44.6961554 821.49937056 C50.08778676 821.49959838 55.47940318 821.4967594 60.87103066 821.49113272 C68.66640018 821.48300281 76.46176386 821.48040097 84.25713717 821.47914473 C96.90486845 821.47695656 109.55259327 821.47030283 122.20032105 821.46084212 C134.48580249 821.45166193 146.77128218 821.44458406 159.05676636 821.4403343 C160.19284125 821.43994022 160.19284125 821.43994022 161.35186714 821.43953817 C165.15146806 821.43823313 168.95106899 821.43696942 172.75066992 821.43572627 C204.26798996 821.42536097 235.78530199 821.40767464 267.30261597 821.38540266 C265.37917989 824.92100909 263.4541929 828.45576883 261.52893433 831.99038313 C260.98693138 832.9867227 260.44492844 833.98306227 259.88650116 835.00959395 C256.31079039 841.57198892 252.6446532 848.06347254 248.86511597 854.51040266 C241.42610489 867.46591595 235.49110356 878.22998986 239.42761597 893.57290266 C242.70103288 903.04459513 249.31545069 911.60967717 258.21846959 916.42069195 C263.69498439 919.03035456 268.09876981 919.96344365 274.13144287 919.89333723 C274.97258326 919.8995772 275.81372364 919.90581716 276.68035313 919.91224621 C279.47384159 919.92808745 282.26644665 919.915607 285.05994019 919.90298079 C287.07295599 919.90840593 289.08596782 919.91553079 291.09897217 919.92422102 C296.54951675 919.94241281 301.99975751 919.93540325 307.45030722 919.92270468 C313.16533662 919.91255279 318.88034063 919.9219767 324.59537109 919.92824934 C334.19363415 919.93552054 343.79177398 919.92595307 353.39001831 919.90688704 C364.46965403 919.8851318 375.54899514 919.89216211 386.62862369 919.91419266 C396.15673694 919.93237646 405.68476177 919.93489003 415.21288678 919.92443798 C420.89674445 919.91821786 426.58046392 919.91732639 432.26431259 919.93058394 C437.61113931 919.94218472 442.95758839 919.9340395 448.30437454 919.91100691 C450.26062505 919.90574184 452.21690762 919.90719562 454.17314514 919.91605757 C468.48341187 919.97488051 479.38682421 919.18969006 490.14245972 908.74087141 C496.68606072 901.60562475 500.26681397 893.30714702 500.74011597 883.57290266 C500.225641 872.55608147 495.43132189 863.02797333 489.74011597 853.82290266 C485.16746084 846.28991589 480.78366082 838.69363349 476.55286011 830.9637718 C476.04624092 830.04030203 475.53962174 829.11683226 475.01765045 828.16537855 C473.77829806 825.90593642 472.53997953 823.64593438 471.30261597 821.38540266 C472.59083976 821.39001163 473.87906355 821.39462059 475.20632443 821.39936922 C505.84639152 821.50786351 536.48640642 821.59020746 567.12661975 821.64072931 C570.90509343 821.64698219 574.68356671 821.65345386 578.4620398 821.66006087 C579.59028919 821.66202819 579.59028919 821.66202819 580.74133149 821.66403527 C592.8902132 821.68573997 605.03897555 821.72513398 617.18778666 821.77116664 C629.67110829 821.81806922 642.15436778 821.84572708 654.6377739 821.85584514 C662.32905727 821.86267585 670.02000318 821.8841801 677.71118257 821.924985 C683.62755932 821.95475815 689.5437667 821.95764225 695.46022019 821.95094107 C697.87354902 821.95230781 700.28689157 821.96213498 702.70014366 821.98143004 C725.27301416 822.15293877 744.05386588 818.93632927 761.06042847 802.74477766 C766.9045011 796.59526569 770.7369822 789.88826294 774.17761597 782.19790266 C774.62560547 781.20004744 774.62560547 781.20004744 775.08264526 780.18203352 C775.35890747 779.53371565 775.63516968 778.88539778 775.91980347 778.21743391 C776.16327515 777.64742659 776.40674683 777.07741926 776.65759644 776.49013899 C778.45403464 770.62825642 778.44805017 764.59787205 778.43683704 758.53025912 C778.43918927 757.65795329 778.44154151 756.78564746 778.44396502 755.88690813 C778.45062625 752.96157377 778.45019766 750.03628412 778.44978699 747.11094282 C778.45308738 744.99330568 778.45681332 742.87566916 778.46092847 740.75803344 C778.47093622 734.93660637 778.47466328 729.11518961 778.47731778 723.29375516 C778.48122433 717.01614863 778.49080228 710.73855025 778.49953064 704.46094893 C778.51834931 690.01801277 778.52854842 675.57507762 778.53699132 661.13213226 C778.54120059 653.99294662 778.54642215 646.85376183 778.55167585 639.7145769 C778.5695626 615.26985151 778.58455867 590.82512587 778.59199604 566.38039492 C778.5924708 564.84646806 778.59294668 563.3125412 778.5934237 561.77861434 C778.59366008 561.01793907 778.59389646 560.25726381 778.59413999 559.47353779 C778.59534117 555.61969652 778.59655663 551.76585525 778.59778198 547.91201399 C778.59814221 546.76481424 778.59814221 546.76481424 778.59850971 545.59443874 C778.60640348 520.7951445 778.62983869 495.99589806 778.66233793 471.1966247 C778.69664665 444.96865181 778.71634805 418.7407069 778.71964028 392.51271121 C778.72005781 389.63277794 778.72053737 386.75284469 778.72106346 383.87291144 C778.72118665 383.16380667 778.72130985 382.4547019 778.72143677 381.72410911 C778.72376726 370.32057558 778.7394185 358.91709768 778.75990531 347.51358397 C778.78017513 336.04888329 778.78530203 324.58427406 778.77613467 313.11955412 C778.77158585 306.91050851 778.77351049 300.7016433 778.79289612 294.49262236 C778.81049799 288.80582105 778.80955393 283.11933216 778.79399883 277.43252767 C778.7916183 275.37802445 778.79596929 273.32349977 778.80782748 271.2690294 C778.91481042 251.50581872 774.58827202 236.38466133 760.61902222 221.63540266 C747.58932317 208.97923631 731.73654725 202.7248116 713.59015545 202.88762472 C712.37374181 202.88241015 711.15732817 202.87719558 709.90405351 202.871823 C706.55274049 202.86146096 703.20234731 202.86882364 699.85111166 202.88393517 C696.1958556 202.895954 692.54065657 202.88459515 688.88540044 202.87629352 C682.4875317 202.86495443 676.08980516 202.86839482 669.69194206 202.88166426 C660.17824498 202.90134149 650.66465152 202.89802405 641.15094229 202.89016367 C625.14325774 202.87762586 609.13563219 202.88394226 593.12795433 202.90135191 C577.27694702 202.91858742 561.42596622 202.92839207 545.57494911 202.92801665 C544.09533315 202.92799371 544.09533315 202.92799371 542.58582596 202.92797031 C538.58164955 202.92788849 534.57747315 202.92775727 530.57329675 202.92755868 C493.02199274 202.92574709 455.4707291 202.94562859 417.9194391 202.97641801 C384.55244856 203.00367573 351.18548669 203.01614011 317.81848511 203.01479719 C315.67526368 203.01471637 313.53204225 203.01463565 311.38882082 203.01455504 C310.32925464 203.01451433 309.26968846 203.01447363 308.17801422 203.0144317 C302.84436853 203.01423011 297.51072284 203.01404894 292.17707714 203.0138912 C291.12484274 203.01385778 290.07260834 203.01382435 288.98848805 203.01378991 C261.10802537 203.01305977 233.22756628 203.02213449 205.3471066 203.03454433 C204.35552733 203.03498488 203.36394806 203.03542542 202.34232093 203.03587931 C198.35493608 203.03765577 194.36755123 203.03943256 190.38016641 203.04126123 C176.50374353 203.04758223 162.62732348 203.05059988 148.75089926 203.0514842 C130.87321967 203.05267781 112.99556375 203.06065536 95.11789428 203.08034712 C85.66136144 203.09058326 76.20486333 203.09539379 66.74832521 203.09235475 C60.43510754 203.09088732 54.1219237 203.09668263 47.80871687 203.10844237 C44.20967062 203.11494941 40.61069723 203.11830853 37.01164745 203.11292118 C33.13634317 203.10720447 29.261165 203.11689685 25.38587078 203.12813376 C23.70712152 203.1219678 23.70712152 203.1219678 21.99445814 203.11567728 C16.06471115 203.1472486 10.98330697 203.66544694 5.30261597 205.38540266 Z " fill="#09FE5B" transform="translate(166.6973840324208,23.614597337320447)"/>
<path d="M0 0 C1.20683875 -0.00235223 2.4136775 -0.00470446 3.65708712 -0.00712797 C7.01390021 -0.01264672 10.37066101 -0.01369028 13.72747499 -0.01285056 C17.37692579 -0.01302023 21.02636804 -0.01892825 24.67581457 -0.02409142 C31.91721513 -0.03341532 39.15860958 -0.03733911 46.4000154 -0.03961039 C55.07256753 -0.04257298 63.74511155 -0.05127069 72.41765943 -0.06002467 C93.37940718 -0.08086709 114.34115634 -0.09133831 135.30291204 -0.10015428 C145.21868446 -0.10436083 155.13445627 -0.10958279 165.05022817 -0.11483881 C198.9911638 -0.13272827 232.93209961 -0.14772468 266.87303925 -0.155159 C269.00377237 -0.15563375 271.13450549 -0.15610964 273.26523861 -0.15658666 C274.85021787 -0.15694122 274.85021787 -0.15694122 276.4672169 -0.15730295 C281.82075497 -0.15850415 287.17429302 -0.1597196 292.52783108 -0.16094494 C294.12146956 -0.16130516 294.12146956 -0.16130516 295.74730276 -0.16167267 C330.19814394 -0.16956661 364.6489507 -0.19300078 399.09977685 -0.22550088 C435.52092427 -0.25979703 471.94205155 -0.2795099 508.36321539 -0.28280324 C512.36124258 -0.28322078 516.35926976 -0.28370034 520.35729694 -0.28422642 C521.34172774 -0.28434961 522.32615853 -0.2844728 523.34042055 -0.28459973 C539.18375767 -0.28693193 555.02705482 -0.30259293 570.87037769 -0.32306826 C586.79475206 -0.34332189 602.7190784 -0.34880573 618.64346326 -0.33929763 C628.10340361 -0.33408101 637.56318409 -0.33996781 647.02310144 -0.3618323 C653.34520785 -0.3753399 659.66720421 -0.37426375 665.98931171 -0.36143034 C669.58953278 -0.35453348 673.18944821 -0.35386452 676.78964198 -0.37099043 C680.67483487 -0.38932096 684.55958174 -0.37645419 688.4447937 -0.36076355 C689.55282574 -0.37098576 690.66085778 -0.38120796 691.80246654 -0.39173993 C708.61805898 -0.24363451 723.69668868 6.73193779 735.54174709 18.41937733 C746.16746658 29.42515236 753.50471971 43.51918671 753.41452312 58.99495125 C753.41743001 59.86785627 753.42033689 60.74076129 753.42333186 61.64011797 C753.43063547 64.56752865 753.42368672 67.49472998 753.41680813 70.42213917 C753.41911242 72.54120211 753.42228873 74.66026425 753.42626262 76.77932471 C753.43462374 82.60463375 753.43047931 88.42987738 753.42429018 94.25518668 C753.41977202 100.53684506 753.42674635 106.81849206 753.43225002 113.1001482 C753.44063819 124.69609713 753.43989875 136.29201951 753.43442709 147.8879691 C753.42939633 158.60215766 753.4280824 169.31633857 753.43047237 180.03052807 C753.43070153 181.0965028 753.43070153 181.0965028 753.43093531 182.18401237 C753.43155799 185.06879169 753.43219479 187.95357101 753.43285484 190.83835032 C753.4389738 217.90418558 753.43342476 244.97000755 753.42266105 272.03584076 C753.41317281 296.07718624 753.41401641 320.11851054 753.42358303 344.15985584 C753.43429572 371.17160371 753.43853677 398.18333982 753.4323585 425.19508952 C753.43171708 428.07554861 753.43109139 430.9560077 753.43047237 433.83646679 C753.43031422 434.5457064 753.43015606 435.25494602 753.42999312 435.98567774 C753.42771928 446.69051272 753.43037672 457.3953392 753.43543148 468.100173 C753.44115209 480.27581713 753.43952368 492.4514299 753.42886999 504.62707237 C753.42361305 510.8398668 753.42155695 517.05261822 753.4281683 523.26541233 C753.43412947 528.95326963 753.43084973 534.64104408 753.42021319 540.32889386 C753.41797986 542.38604864 753.41911395 544.44321043 753.42396477 546.5003607 C753.43005755 549.29899543 753.42379655 552.09734741 753.41452312 554.89596748 C753.41920546 555.69232997 753.42388779 556.48869246 753.42871201 557.30918714 C753.36987266 566.21030129 751.65762127 574.23673226 747.53784084 582.13422108 C747.18665188 582.81919666 746.83546291 583.50417225 746.47363186 584.20990467 C738.31198727 599.64594 725.54447724 610.56057529 708.82093716 615.81358814 C697.39583995 619.23746011 685.82688928 618.79634308 674.00829983 618.70184803 C671.51321345 618.70043499 669.018125 618.70123454 666.52303982 618.70406055 C661.18548674 618.70519211 655.84831487 618.69118876 650.5108614 618.66287136 C642.7941968 618.62195826 635.07767934 618.609186 627.36091805 618.6029314 C614.8362304 618.59203141 602.31170705 618.55887489 589.78710842 618.51141834 C577.63216877 618.4654108 565.477274 618.43007397 553.32226467 618.40887928 C552.57102109 618.40756566 551.81977751 618.40625205 551.04576897 618.40489862 C547.27640001 618.39837268 543.50703073 618.39205432 539.73766124 618.3858391 C508.54593503 618.33414009 477.35441307 618.24581726 446.16284084 618.13422108 C448.07998687 621.66654722 450.00006385 625.19727205 451.92065334 628.72772694 C452.46052883 629.72252819 453.00040432 630.71732944 453.55663967 631.74227619 C457.24588124 638.51937853 461.10608062 645.13364591 465.16284084 651.69672108 C472.07175683 663.18066639 477.6344569 674.45628427 474.46752834 688.13812733 C471.27851028 698.84411653 464.97621965 707.82173587 455.03746605 713.30729198 C445.67028928 717.19986975 436.15708722 716.71209978 426.19433498 716.68353748 C424.18264418 716.69224369 422.17096 716.70261397 420.15928555 716.71451283 C414.72121269 716.74118475 409.28341875 716.74246252 403.84529328 716.73738623 C399.29521388 716.73523976 394.74519009 716.74503132 390.19512266 716.75459707 C379.45653612 716.77674932 368.71808954 716.77768321 357.97949123 716.76556873 C346.92245722 716.75348641 335.86593204 716.77812653 324.80898482 716.82070887 C315.2943963 716.85599612 305.77996936 716.86793507 296.26531786 716.86143339 C290.59198557 716.85781665 284.91901644 716.86299011 279.24574375 716.89086246 C273.90942945 716.9161012 268.57390601 716.91205515 263.23760319 716.88604069 C261.28659956 716.88132798 259.33553954 716.8867109 257.38460064 716.90328693 C244.02535453 717.00855311 234.24941831 715.65497856 223.78784084 706.50922108 C215.95269769 698.01978622 212.64679762 687.88262669 212.83959866 676.52191639 C213.81523293 666.29691551 220.44187719 656.6416214 225.41284084 647.88422108 C226.03030178 646.78465076 226.64776272 645.68508045 227.28393459 644.55218983 C228.51707803 642.35795728 229.75303775 640.1653043 230.99224758 637.97449207 C233.30538798 633.88463424 235.60904598 629.78946759 237.91186428 625.69379139 C238.32314571 624.96245991 238.73442715 624.23112843 239.15817165 623.47763538 C240.1598002 621.69653786 241.16133084 619.91538527 242.16284084 618.13422108 C240.86669794 618.13790825 239.57055504 618.14159542 238.23513508 618.14539433 C207.42459625 618.23214136 176.61409055 618.29804087 145.8034588 618.33848239 C142.00609765 618.34348485 138.20873676 618.34866218 134.411376 618.35394764 C133.27746029 618.3555215 133.27746029 618.3555215 132.12063719 618.35712716 C119.90185338 618.37450311 107.68314532 618.40602519 95.46440636 618.44283226 C82.91442576 618.48032011 70.36448467 618.50247346 57.81445038 618.51057506 C50.07868334 618.51604663 42.34313047 618.533289 34.6074294 618.56588694 C28.66237145 618.58965362 22.71742171 618.59202121 16.77231503 618.5866518 C14.3432207 618.58774763 11.91411788 618.59564232 9.48507214 618.61104298 C-12.50189715 618.7435473 -30.12212292 615.68435203 -46.83715916 600.13422108 C-59.12673585 587.58230531 -65.18480952 572.38829978 -65.09442806 554.90993404 C-65.09793414 554.03416668 -65.10144021 553.15839933 -65.10505253 552.25609356 C-65.1143173 549.33699706 -65.10945599 546.41810222 -65.10458469 543.49899769 C-65.10832342 541.37877042 -65.11292582 539.25854452 -65.11831534 537.1383208 C-65.13053294 531.32365688 -65.13028633 525.50905054 -65.12792659 519.69437671 C-65.12751812 513.41886336 -65.13856035 507.14336841 -65.14804173 500.86786366 C-65.16464514 488.57812895 -65.17017688 476.28841733 -65.17126648 463.99867286 C-65.17218632 454.00949896 -65.17630694 444.02033128 -65.18266773 434.0311594 C-65.18446287 431.15358667 -65.1862425 428.27601394 -65.18801749 425.3984412 C-65.18845958 424.68303079 -65.18890168 423.96762039 -65.18935717 423.23053089 C-65.20166104 403.11462757 -65.20955874 382.99872642 -65.20867062 362.88281918 C-65.20863946 362.12479178 -65.2086083 361.36676439 -65.2085762 360.58576647 C-65.20840999 356.74394396 -65.20821191 352.90212145 -65.20800678 349.06029893 C-65.20796689 348.29732571 -65.207927 347.53435249 -65.2078859 346.74825887 C-65.20780503 345.20534274 -65.20772143 343.66242662 -65.20763512 342.11951049 C-65.20640946 318.11120621 -65.22142748 294.10295842 -65.24878025 270.0946703 C-65.27951195 243.10961357 -65.29671215 216.12459395 -65.29485381 189.13951862 C-65.29470455 186.26131717 -65.29460713 183.38311573 -65.29454517 180.50491428 C-65.29452186 179.79624902 -65.29449856 179.08758375 -65.29447454 178.35744378 C-65.29441304 166.96244754 -65.30717437 155.56750042 -65.3244097 144.17251877 C-65.34137627 132.71826132 -65.34298926 121.26410083 -65.33019106 109.80983295 C-65.32365683 103.60684577 -65.32356104 97.40403633 -65.34089756 91.20106602 C-65.35661232 85.51992984 -65.3537806 79.83911257 -65.3363293 74.15798424 C-65.33325597 72.1055919 -65.33690426 70.05317585 -65.34804945 68.00081147 C-65.44823239 48.23962597 -61.10910387 33.13984565 -47.15747166 18.38422108 C-33.37926005 5.02353103 -18.92569422 -0.02497163 0 0 Z M-26.83715916 38.13422108 C-31.51820545 44.34108125 -34.89829245 50.60246965 -36.83715916 58.13422108 C-37.0099797 58.66679691 -37.18280025 59.19937274 -37.36085778 59.74808723 C-38.05955103 63.24834085 -37.97520448 66.73070028 -37.96579361 70.28501892 C-37.96754665 71.11761778 -37.96929968 71.95021664 -37.97110584 72.80804577 C-37.97578211 75.6163468 -37.97329616 78.42459643 -37.97087193 81.23289967 C-37.97273909 83.25933986 -37.97503941 85.2857797 -37.97773725 87.31221896 C-37.98387353 92.89538445 -37.98371951 98.478535 -37.98254287 104.06170309 C-37.98233932 110.07754173 -37.98785327 116.09337552 -37.99260044 122.10921192 C-38.00091783 133.9014467 -38.00366872 145.69367775 -38.00421282 157.48591485 C-38.00467212 167.06955419 -38.0067292 176.6531919 -38.00991344 186.23683071 C-38.01081098 188.99413913 -38.01170079 191.75144756 -38.01258832 194.50875598 C-38.01280937 195.19421072 -38.01303042 195.87966547 -38.01325816 196.58589156 C-38.019414 215.87157414 -38.02335857 235.15725616 -38.02291489 254.44293976 C-38.02289931 255.17031598 -38.02288373 255.89769219 -38.02286768 256.64711011 C-38.02278457 260.33385739 -38.02268553 264.02060467 -38.02258297 267.70735195 C-38.02256303 268.43956813 -38.02254308 269.17178431 -38.02252253 269.92618886 C-38.02248209 271.40690981 -38.0224403 272.88763077 -38.02239714 274.36835173 C-38.02178448 297.40221228 -38.02928848 320.4360581 -38.0429697 343.46991444 C-38.05833029 369.34190857 -38.06693592 395.21389304 -38.06600648 421.08589202 C-38.06593185 423.84477222 -38.06588314 426.60365242 -38.06585217 429.36253262 C-38.06584051 430.04184984 -38.06582886 430.72116707 -38.06581685 431.42106967 C-38.06578607 442.35391554 -38.07217252 453.28674862 -38.08078443 464.21959069 C-38.08926143 475.20849821 -38.09007894 486.19738938 -38.08367511 497.18629875 C-38.08040444 503.13971677 -38.0803729 509.09308847 -38.08902836 515.04650211 C-38.09687024 520.49633735 -38.09548558 525.94608937 -38.08674423 531.39592252 C-38.08520412 533.36768661 -38.08704454 535.33945684 -38.0926043 537.31121369 C-38.09966357 539.99231559 -38.09437132 542.6731255 -38.08604813 545.35421753 C-38.09101631 546.11876897 -38.09598449 546.88332042 -38.10110322 547.67104009 C-38.01777404 560.37774274 -33.41086221 572.75298692 -24.64965916 582.07172108 C-13.91926161 591.90333319 -3.4236777 595.4443014 10.7638483 595.39428329 C11.9330083 595.39808897 13.1021683 595.40189464 14.30675739 595.40581563 C17.55326436 595.41434851 20.79962846 595.41394359 24.04613942 595.40976027 C27.57773128 595.40739366 31.10929639 595.41656363 34.64087808 595.42424446 C40.83104367 595.43609129 47.02117977 595.44045724 53.21135616 595.43992329 C62.4166151 595.43913015 71.62183682 595.44967891 80.82708582 595.46233886 C99.18295766 595.48708174 117.53882048 595.49586193 135.8947067 595.50087534 C136.84538889 595.50113652 137.79607107 595.50139769 138.77556181 595.50166678 C140.20443999 595.5020572 140.20443999 595.5020572 141.66218439 595.50245549 C152.21691283 595.50553739 162.77163876 595.51204201 173.32636547 595.51866817 C205.203805 595.53831637 237.08124181 595.55472057 268.95868778 595.55754471 C270.48821322 595.5576858 270.48821322 595.5576858 272.04863817 595.55782974 C276.18099846 595.55820822 280.31335874 595.55857222 284.44571903 595.55893272 C287.55601615 595.55920444 290.66631326 595.55948112 293.77661037 595.55975819 C295.31825245 595.55989022 295.31825245 595.55989022 296.89103882 595.56002492 C329.18300105 595.56293029 361.47490343 595.58502525 393.76684475 595.62128162 C430.04178329 595.66200889 466.31668104 595.68570328 502.59164369 595.68600422 C506.45990301 595.68610104 510.32816231 595.68626777 514.19642162 595.68648434 C515.62512937 595.68655051 515.62512937 595.68655051 517.0826999 595.68661802 C532.40993302 595.68773783 547.73710617 595.7051461 563.06431999 595.72830366 C578.46992718 595.7511478 593.87545335 595.75537036 609.28107126 595.74075436 C618.43222306 595.73260388 627.58311964 595.73829034 636.73424047 595.7639352 C642.8504842 595.7796915 648.96654682 595.77720517 655.08278622 595.76002848 C658.56546132 595.75075948 662.04764504 595.74925289 665.53028174 595.76999455 C685.02718319 595.86409774 698.56801232 594.98544349 713.28002834 581.14203358 C722.02367461 572.13442818 726.32242768 561.3512157 726.29426861 548.96056843 C726.29632124 548.12549161 726.29837388 547.29041479 726.30048871 546.43003261 C726.30617289 543.61327447 726.30469971 540.79656501 726.30328274 537.97980213 C726.30586557 535.94725027 726.3088785 533.91469891 726.31228614 531.88214827 C726.32036921 526.28197303 726.32214644 520.68181061 726.32288361 515.08163023 C726.32473193 509.04732798 726.33227822 503.01303241 726.33901882 496.97873402 C726.35332179 483.08738712 726.3591303 469.19604336 726.36371077 455.30469095 C726.3660466 448.43927775 726.36964927 441.57386537 726.37340614 434.70845282 C726.38624294 411.20518155 726.3969613 387.70191075 726.40040874 364.19863605 C726.40063038 362.72303936 726.40085216 361.24744266 726.4010741 359.77184597 C726.40129474 358.29268799 726.40151522 356.81353002 726.40173554 355.33437204 C726.4021781 352.36693891 726.40262521 349.39950577 726.40307522 346.43207264 C726.40318461 345.696321 726.403294 344.96056937 726.40340671 344.20252223 C726.40703621 320.3532239 726.42295157 296.50395599 726.44626558 272.65466931 C726.47087176 247.43740504 726.48458198 222.22015815 726.48577666 197.00288153 C726.48594811 194.23355611 726.48616354 191.46423069 726.48641109 188.69490528 C726.48649475 187.67208339 726.48649475 187.67208339 726.48658009 186.62859843 C726.48772995 175.66286265 726.49874661 164.69715811 726.51329815 153.73143288 C726.52767776 142.70438372 726.53063979 131.67736613 726.52285817 120.65030795 C726.51895091 114.67826845 726.51988509 108.70633389 726.53391552 102.73430729 C726.54664976 97.26392746 726.54546093 91.79373148 726.53332481 86.32335192 C726.53136699 84.34749541 726.53445016 82.3716259 726.54316917 80.39578766 C726.61428304 63.18673405 724.8670729 49.02383338 712.85034084 35.72406483 C701.13468026 24.68639386 686.88899252 21.81539954 671.32486629 21.87974548 C670.16654134 21.87653901 669.00821638 21.87333253 667.81479067 21.87002888 C664.61267334 21.86317993 661.41070706 21.86521759 658.20859247 21.87108461 C654.71995805 21.87526888 651.23134462 21.86784508 647.74271536 21.8619321 C641.63270499 21.8531801 635.52272813 21.85185443 629.41271305 21.85543537 C620.32686084 21.86074632 611.24104104 21.85464317 602.15519236 21.84635244 C584.9841237 21.83111465 567.81306979 21.82940709 550.64199579 21.83187547 C537.38383104 21.83370817 524.12567112 21.83194899 510.86750698 21.82765102 C508.96267983 21.82704862 507.05785269 21.82644743 505.15302554 21.82584742 C502.28264882 21.82494017 499.41227211 21.8240315 496.5418954 21.82311507 C469.85643874 21.81468602 443.17098389 21.81034957 416.48552608 21.81452179 C414.97665285 21.81475635 414.97665285 21.81475635 413.43729732 21.81499566 C408.33891515 21.81580144 403.24053298 21.81664721 398.14215082 21.81750896 C397.12959428 21.81768005 396.11703774 21.81785113 395.07379767 21.81802741 C393.02616372 21.81837406 390.97852978 21.81872259 388.93089584 21.81907299 C357.06142256 21.82443158 325.19197694 21.81649566 293.32250881 21.79803944 C257.51782391 21.77732855 221.71315614 21.76659487 185.90846491 21.77061492 C182.09170151 21.77101027 178.27493811 21.77137182 174.45817471 21.7717123 C173.51838846 21.77180303 172.57860222 21.77189377 171.6103376 21.77198725 C157.41785528 21.77315366 143.22539025 21.76650171 129.03291225 21.75590038 C112.89562725 21.74385865 96.75838038 21.74227768 80.62109482 21.75469055 C71.58933584 21.76132672 62.55766798 21.7596706 53.52591625 21.74610204 C47.49318734 21.73786919 41.46052682 21.7405399 35.42780348 21.7520773 C31.99051313 21.75834522 28.55340083 21.75990504 25.11612064 21.74821397 C21.41085225 21.73814205 17.70606434 21.74650152 14.00081539 21.75949097 C12.93738476 21.75218162 11.87395412 21.74487227 10.77829832 21.73734143 C-3.40523787 21.84063968 -17.20736558 27.48647892 -26.83715916 38.13422108 Z " fill="#0B0E0F" transform="translate(191.83715915679932,226.86577892303467)"/>
<path d="M0 0 C68.64 0 137.28 0 208 0 C208 25.74930051 199.55090152 50.75744532 182 70 C181.5467334 70.50096191 181.0934668 71.00192383 180.62646484 71.51806641 C169.24521903 83.94380545 156.5266103 92.5103621 141 99 C139.90945313 99.50273438 138.81890625 100.00546875 137.6953125 100.5234375 C113.89212106 110.0346493 87.07266116 107.62123304 63.89160156 97.83251953 C37.1275298 86.05328815 17.27450212 64.89599674 6.70654297 37.83984375 C6.47338379 37.23269531 6.24022461 36.62554688 6 36 C5.58878906 34.9378125 5.17757813 33.875625 4.75390625 32.78125 C0.80651085 21.79216391 0 11.6866969 0 0 Z " fill="#FEFEFE" transform="translate(432,585)"/>
<path d="M0 0 C2.70428814 2.10127363 4.87207787 4.32506964 7 7 C7.45632813 7.54269531 7.91265625 8.08539063 8.3828125 8.64453125 C15.69413074 17.99163571 17.15093555 28.40772975 17.14526367 39.91748047 C17.14862228 40.90037048 17.1519809 41.8832605 17.15544128 42.89593506 C17.16491909 46.13636549 17.16689276 49.37674408 17.16796875 52.6171875 C17.17118335 54.87631247 17.17454758 57.13543723 17.17805481 59.39456177 C17.18403802 64.12714114 17.18589552 68.85970227 17.18530273 73.59228516 C17.18520112 79.64703055 17.19885658 85.70165866 17.21607494 91.75637627 C17.22720999 96.42160578 17.22922148 101.08680706 17.22869301 105.75204849 C17.22987072 107.9838921 17.23428078 110.2157365 17.24202538 112.44756699 C17.25185623 115.57303771 17.24893499 118.6982554 17.24291992 121.82373047 C17.24853943 122.73931732 17.25415894 123.65490417 17.25994873 124.59823608 C17.1935104 138.22918031 11.88909341 149.92721472 2.50390625 159.8046875 C-7.73414741 168.78095295 -19.71086544 171.68893194 -33 171 C-46.27583721 169.59408683 -56.23417383 162.89830351 -64.8203125 152.875 C-74.42018337 139.75356845 -73.59535217 124.65839679 -73.53125 109.18359375 C-73.53394984 106.87679379 -73.53783634 104.56999495 -73.54284668 102.26319885 C-73.54871735 97.44789711 -73.54025651 92.63289379 -73.52148438 87.81762695 C-73.49868387 81.67248274 -73.51184104 75.52803708 -73.53577423 69.38291836 C-73.550287 64.62570513 -73.54560132 59.86865522 -73.53526306 55.11143684 C-73.53261158 52.84661843 -73.53580937 50.58178475 -73.54518127 48.31698418 C-73.60263978 30.53486959 -72.36361172 16.90552157 -59.75 3.3125 C-42.10766383 -13.43606143 -19.75667679 -11.72086842 0 0 Z " fill="#FEFEFE" transform="translate(762,414)"/>
<path d="M0 0 C8.79887722 7.12517775 15.7824254 15.3552965 18.15625 26.74609375 C18.25009775 28.25899956 18.29517787 29.7753616 18.30342102 31.29115295 C18.31057632 32.19789764 18.31773163 33.10464233 18.32510376 34.03886414 C18.32779266 35.02643204 18.33048157 36.01399994 18.33325195 37.03149414 C18.33982315 38.07754822 18.34639435 39.12360229 18.35316467 40.20135498 C18.37288426 43.66548741 18.38455898 47.12957645 18.39453125 50.59375 C18.39860678 51.77890135 18.4026823 52.9640527 18.40688133 54.18511772 C18.42773898 60.46121928 18.44204057 66.73729902 18.45141602 73.01342773 C18.46246386 79.48057151 18.49684637 85.94736966 18.53658772 92.41439152 C18.56279828 97.39972044 18.57111195 102.38496767 18.57469749 107.37035942 C18.57955399 109.75325281 18.59114104 112.13614279 18.60973549 114.51896858 C18.63421467 117.8645637 18.63314519 121.20927345 18.6262207 124.55493164 C18.63903076 125.52832993 18.65184082 126.50172821 18.66503906 127.50462341 C18.573099 139.77178743 13.39975706 151.07558158 5.04296875 160.00390625 C-5.13659159 169.00297976 -17.75394105 172.76707738 -31.14453125 172.203125 C-39.69639308 171.14655918 -46.91352299 167.77013891 -53.84375 162.74609375 C-54.43800781 162.3284375 -55.03226562 161.91078125 -55.64453125 161.48046875 C-63.98538446 155.04451106 -68.53345839 145.83383022 -70.84375 135.74609375 C-71.24262007 132.05881054 -71.27482669 128.41011701 -71.26367188 124.70361328 C-71.27214142 123.64853577 -71.28061096 122.59345825 -71.28933716 121.50640869 C-71.3125788 118.0471158 -71.31373237 114.58827104 -71.3125 111.12890625 C-71.3196091 108.70571722 -71.32730918 106.28252986 -71.33557129 103.85934448 C-71.34898654 98.79078487 -71.35059801 93.72238095 -71.34472656 88.65380859 C-71.33883229 82.18230907 -71.36942593 75.71156021 -71.40984344 69.24020576 C-71.4357844 64.23851549 -71.43859203 59.23700446 -71.43495178 54.2352562 C-71.4366369 51.85040271 -71.4462203 49.46554041 -71.46409607 47.08075333 C-71.57279674 30.78799184 -71.06562033 18.9092617 -60.08984375 6.00390625 C-43.8525066 -10.31814744 -19.06481176 -13.84961869 0 0 Z " fill="#FEFEFE" transform="translate(365.84375,413.25390625)"/>
</svg>
